<?xml version="1.0" encoding="UTF-8" standalone="no"?>
<!-- Created with Inkscape (http://www.inkscape.org/) -->

<svg
   width="53.765911mm"
   height="26.949425mm"
   viewBox="0 0 53.765911 26.949425"
   version="1.1"
   id="svg1"
   inkscape:version="1.4.2 (f4327f4, 2025-05-13)"
   sodipodi:docname="cma_logo.svg"
   xmlns:inkscape="http://www.inkscape.org/namespaces/inkscape"
   xmlns:sodipodi="http://sodipodi.sourceforge.net/DTD/sodipodi-0.dtd"
   xmlns="http://www.w3.org/2000/svg"
   xmlns:svg="http://www.w3.org/2000/svg">
  <sodipodi:namedview
     id="namedview1"
     pagecolor="#ffffff"
     bordercolor="#000000"
     borderopacity="0.25"
     inkscape:showpageshadow="2"
     inkscape:pageopacity="0.0"
     inkscape:pagecheckerboard="0"
     inkscape:deskcolor="#d1d1d1"
     inkscape:document-units="mm"
     inkscape:zoom="0.92915965"
     inkscape:cx="268.52221"
     inkscape:cy="-213.6339"
     inkscape:window-width="2400"
     inkscape:window-height="1261"
     inkscape:window-x="-9"
     inkscape:window-y="-9"
     inkscape:window-maximized="1"
     inkscape:current-layer="layer1" />
  <defs
     id="defs1" />
  <g
     inkscape:label="Layer 1"
     inkscape:groupmode="layer"
     id="layer1"
     transform="translate(-33.866671,-205.05207)">
    <g
       id="g31"
       transform="matrix(0.89831409,0,0,0.89831409,-281.78205,152.59803)">
      <g
         id="g15"
         transform="matrix(1.5282101,0,0,1.5282101,-191.0327,-522.31728)">
        <path
           d="m 390.44754,382.78463 c 0.0818,-0.60964 -0.22195,-1.11521 -0.8201,-1.36514 -0.38443,-0.16062 -0.47299,-0.15463 -0.8885,0.0601 -0.51071,0.26395 -0.7721,0.66639 -0.77492,1.1931 -0.002,0.4528 -0.19861,0.44154 -0.44,-0.0253 -0.62618,-1.2109 0.33221,-2.65453 1.76227,-2.65453 0.76102,0 1.3741,0.36524 1.70637,1.01655 0.31633,0.62006 0.31444,1.13378 -0.006,1.76285 -0.33902,0.66453 -0.62701,0.67113 -0.53864,0.0123 z"
           style="fill:#24abc9;fill-opacity:1"
           id="path1-1" />
        <path
           d="m 358.23627,396.05993 c -1.67152,-0.59623 -2.58257,-1.96437 -2.58257,-3.87824 0,-2.6086 1.78525,-4.28654 4.53987,-4.26698 0.86832,0.006 2.31693,0.31676 2.44518,0.52427 0.0838,0.13553 -0.0662,0.77918 -0.18156,0.77918 -0.0567,0 -0.39972,-0.18443 -0.76234,-0.40985 -0.59454,-0.36959 -0.75331,-0.40956 -1.61625,-0.40693 -1.53834,0.005 -2.47357,0.67033 -3.03783,2.1621 -0.23243,0.61449 -0.26836,0.91176 -0.21845,1.80737 0.0913,1.63827 0.60724,2.55612 1.79491,3.19313 0.79267,0.42516 2.1782,0.37562 3.08964,-0.11046 0.38147,-0.20345 0.73615,-0.38915 0.78817,-0.41267 0.052,-0.0235 0.0946,0.10704 0.0946,0.29011 0,0.27511 -0.10394,0.37976 -0.59901,0.6031 -0.84054,0.37919 -2.85485,0.44672 -3.75434,0.12587 z m 5.57406,0.005 c -0.0353,-0.0571 -0.0142,-0.37132 0.0468,-0.69821 0.12594,-0.67409 0.82238,-5.58214 0.94848,-6.68427 0.0456,-0.39881 0.12858,-0.72512 0.18433,-0.72512 0.0972,0 0.42,0.57002 1.89242,3.34186 0.86646,1.6311 1.54791,2.74557 1.71231,2.80037 0.0718,0.0239 0.29197,-0.25586 0.48924,-0.62178 1.25606,-2.32996 2.89125,-5.23201 3.03185,-5.38076 0.13948,-0.14757 0.17689,-0.10734 0.23451,0.25222 0.0609,0.37993 0.8149,6.85188 0.8726,7.48982 0.0191,0.21097 -0.0648,0.25856 -0.51315,0.291 -0.29477,0.0213 -0.53666,-0.007 -0.53751,-0.0631 -0.003,-0.18258 -0.36442,-4.11618 -0.45318,-4.92936 -0.0475,-0.43565 -0.13102,-0.81964 -0.18549,-0.8533 -0.10261,-0.0634 -0.4507,0.55335 -2.16233,3.83143 -0.55536,1.0636 -1.05155,1.88645 -1.10264,1.82856 -0.0511,-0.0579 -0.7041,-1.29699 -1.45111,-2.75353 -1.30715,-2.54869 -1.57029,-3.01489 -1.65429,-2.93089 -0.0462,0.0461 -0.53512,4.44969 -0.5845,5.26388 -0.0309,0.51001 -0.0683,0.57141 -0.36931,0.60624 -0.18419,0.0213 -0.36377,-0.008 -0.39907,-0.0651 z m 10.3812,-0.0285 c 0,-0.13385 3.59968,-8.0637 3.71095,-8.17497 0.0397,-0.0397 0.0955,-0.0486 0.12395,-0.0197 0.0704,0.0716 3.44494,7.75334 3.54631,8.07273 0.0744,0.23453 0.033,0.25151 -0.52575,0.2157 -0.60356,-0.0387 -0.60766,-0.042 -0.83377,-0.66942 -0.12497,-0.3468 -0.40367,-1.04197 -0.61933,-1.54482 l -0.39211,-0.91428 h -1.54976 -1.54975 l -0.50032,1.2926 c -0.27518,0.71093 -0.53868,1.42029 -0.58555,1.57635 -0.0632,0.21037 -0.18085,0.28374 -0.45505,0.28374 -0.2034,0 -0.36982,-0.053 -0.36982,-0.11789 z m 4.78575,-3.63381 c -0.0166,-0.24805 -1.21654,-2.73985 -1.30924,-2.71881 -0.11775,0.0267 -1.19506,2.40677 -1.20211,2.65575 -0.003,0.1159 0.32944,0.15764 1.25661,0.15764 0.69359,0 1.25823,-0.0426 1.25474,-0.0946 z"
           style="fill:#186963;fill-opacity:1"
           id="path1"
           sodipodi:nodetypes="sscssscsssssssssscssssssssscssssssssssssssssscccssssssscsss" />
        <path
           d="m 380.15227,386.58717 c -1.54417,-0.57011 -2.39518,-2.51898 -1.75847,-4.027 0.19701,-0.46661 1.02423,-1.45024 1.21963,-1.45024 0.0468,0 0.0566,0.25182 0.022,0.55961 -0.0978,0.86789 0.062,1.4219 0.57409,1.98935 0.55587,0.61603 1.07525,0.85595 1.85296,0.85595 0.75901,0 1.30345,-0.24103 1.88868,-0.83613 l 0.4799,-0.488 -0.0703,0.71093 c -0.11451,1.15845 -0.68788,2.03126 -1.66406,2.53312 -0.65217,0.33527 -1.85412,0.40727 -2.54441,0.15241 z"
           style="fill:#17a8a2;fill-opacity:1"
           id="path1-6" />
        <path
           d="m 387.15753,396.17451 c -1.38132,-0.23393 -2.85829,-1.21388 -3.60512,-2.39194 -0.35025,-0.55249 -0.81486,-2.01547 -0.81174,-2.55606 0.002,-0.38034 0.0179,-0.36818 0.38413,0.29703 0.53176,0.96589 1.1538,1.56044 2.05633,1.96547 1.96204,0.88052 4.33531,0.0406 5.35304,-1.89442 0.29114,-0.55356 0.33599,-0.78958 0.337,-1.77351 9.5e-4,-0.93274 -0.0508,-1.24041 -0.29034,-1.72677 -0.39319,-0.79823 -1.16667,-1.56926 -1.95689,-1.95067 l -0.65209,-0.31474 0.78798,0.061 c 1.6235,0.12563 3.29751,1.26951 4.04489,2.76397 1.94111,3.88139 -1.33939,8.2502 -5.64719,7.52067 z"
           style="fill:#018e91;fill-opacity:1"
           id="path1-61" />
      </g>
      <text
         xml:space="preserve"
         style="font-style:normal;font-variant:normal;font-weight:normal;font-stretch:normal;font-size:3.23472px;font-family:Garamond;-inkscape-font-specification:Garamond;text-align:start;writing-mode:lr-tb;direction:ltr;text-anchor:start;fill:#8b8b8b;fill-opacity:1;stroke-width:4.58463"
         x="351.1817"
         y="88.359306"
         id="text15"><tspan
           sodipodi:role="line"
           id="tspan15"
           x="351.1817"
           y="88.359306"
           style="font-style:normal;font-variant:normal;font-weight:bold;font-stretch:normal;font-size:3.23472px;font-family:'Sans Serif Collection';-inkscape-font-specification:'Sans Serif Collection Bold';fill:#8b8b8b;fill-opacity:1;stroke-width:4.58463">CENTRO DE MICROSCOPÍAS AVANZADAS</tspan></text>
    </g>
  </g>
</svg>
