<?xml version="1.0" encoding="UTF-8" standalone="no"?>
<!-- Created with Inkscape (http://www.inkscape.org/) -->

<svg
   width="96.847313mm"
   height="11.936739mm"
   viewBox="0 0 96.847313 11.936739"
   version="1.1"
   id="svg1"
   xml:space="preserve"
   inkscape:version="1.4.2 (f4327f4, 2025-05-13)"
   sodipodi:docname="exactas_logo.svg"
   xmlns:inkscape="http://www.inkscape.org/namespaces/inkscape"
   xmlns:sodipodi="http://sodipodi.sourceforge.net/DTD/sodipodi-0.dtd"
   xmlns="http://www.w3.org/2000/svg"
   xmlns:svg="http://www.w3.org/2000/svg"><sodipodi:namedview
     id="namedview1"
     pagecolor="#ffffff"
     bordercolor="#000000"
     borderopacity="0.25"
     inkscape:showpageshadow="2"
     inkscape:pageopacity="0.0"
     inkscape:pagecheckerboard="0"
     inkscape:deskcolor="#d1d1d1"
     inkscape:document-units="mm"
     inkscape:zoom="2.7545174"
     inkscape:cx="167.72448"
     inkscape:cy="7.07928"
     inkscape:window-width="2400"
     inkscape:window-height="1261"
     inkscape:window-x="-9"
     inkscape:window-y="-9"
     inkscape:window-maximized="1"
     inkscape:current-layer="layer1" /><defs
     id="defs1" /><g
     inkscape:label="Layer 1"
     inkscape:groupmode="layer"
     id="layer1"
     transform="translate(-65.281864,-161.74358)"><g
       id="g3"><path
         style="fill:#33929e"
         d="m 65.959197,173.51039 c -0.466605,-0.25736 -0.677333,-0.62769 -0.677333,-1.19031 0,-0.44853 0.02235,-0.50162 0.348627,-0.82789 0.333741,-0.33374 0.371139,-0.34863 0.875831,-0.34863 0.571934,0 0.819512,0.13827 1.15281,0.64385 0.365415,0.55429 0.07874,1.38093 -0.598778,1.72657 -0.410661,0.2095 -0.716634,0.20851 -1.101157,-0.004 z m 1.057444,-0.13775 c 0.258064,-0.10761 0.385623,-0.2346 0.531507,-0.52916 0.105573,-0.21317 0.191298,-0.41992 0.1905,-0.45945 -0.0038,-0.18991 -0.307164,-0.71479 -0.533378,-0.92296 -0.208812,-0.19215 -0.330492,-0.23283 -0.69643,-0.23283 -0.416722,0 -0.464443,0.0228 -0.79286,0.37911 -0.410833,0.4457 -0.452845,0.77197 -0.169419,1.31574 0.285504,0.54775 0.833053,0.71519 1.47008,0.44955 z m 4.699889,0.21312 c -0.162983,-0.0443 -0.434593,-0.11061 -0.603577,-0.14743 -0.168984,-0.0368 -0.454734,-0.15702 -0.635,-0.26713 -0.384155,-0.23463 -0.962756,-0.77755 -0.962756,-0.9034 0,-0.0481 -0.0547,-0.1329 -0.121558,-0.18839 -0.06686,-0.0555 -0.146168,-0.21293 -0.176248,-0.34988 -0.03008,-0.13696 -0.109185,-0.35825 -0.175791,-0.49176 -0.09993,-0.20032 -0.117224,-0.81073 -0.09892,-3.49165 l 0.02218,-3.24889 1.046429,-0.0239 c 0.6992,-0.0159 1.085497,0.009 1.164167,0.0739 0.09603,0.0797 0.117923,0.59925 0.118743,2.81785 0.0011,3.06783 0.05261,3.46056 0.508114,3.87661 0.194006,0.1772 0.356687,0.2435 0.617939,0.25189 1.135299,0.0364 1.52882,-0.12343 1.776129,-0.72136 0.126968,-0.30699 0.144813,-0.70608 0.144813,-3.2387 0,-2.36334 0.02141,-2.90635 0.117738,-2.98629 0.07867,-0.0653 0.464966,-0.0898 1.164166,-0.0739 l 1.046429,0.0239 -0.0034,3.38667 -0.0034,3.38667 -0.219943,0.46567 c -0.120968,0.25611 -0.373816,0.63978 -0.561885,0.85257 -0.334331,0.3783 -1.077605,0.8395 -1.357051,0.84203 -0.07719,7e-4 -0.292753,0.0562 -0.47902,0.12328 -0.386747,0.13933 -1.858173,0.15932 -2.328333,0.0316 z m 1.91271,-0.11294 c 0.228593,-0.0693 0.5211,-0.12649 0.650015,-0.12701 0.592316,-0.002 1.849094,-0.98836 1.971801,-1.54704 0.03282,-0.14945 0.120882,-0.36513 0.195684,-0.47929 0.117265,-0.17896 0.14037,-0.64614 0.167699,-3.39085 0.02747,-2.75856 0.01468,-3.1974 -0.09584,-3.28913 -0.08911,-0.074 -0.40444,-0.0986 -1.046635,-0.0817 l -0.919098,0.0241 -0.04233,3.06069 -0.04233,3.06068 -0.340361,0.40143 c -0.278293,0.32822 -0.424078,0.42285 -0.799442,0.51891 -0.579238,0.14824 -1.272865,0.0169 -1.639234,-0.3105 -0.48637,-0.43457 -0.512844,-0.61394 -0.56237,-3.81021 l -0.04526,-2.921 h -1.016 -1.016 l -0.02223,3.07946 c -0.01885,2.61055 -0.0027,3.11855 0.105834,3.33619 0.07044,0.14119 0.128415,0.31754 0.128841,0.39187 0.0023,0.40786 0.88905,1.61683 1.185852,1.61683 0.0618,0 0.178105,0.0595 0.258444,0.13219 0.08034,0.0727 0.369089,0.16615 0.641667,0.20765 0.272578,0.0415 0.609896,0.11209 0.749596,0.15686 0.38633,0.12382 1.068482,0.11041 1.53171,-0.0301 z m 25.344313,0.0963 c -0.119521,-0.0624 -0.329071,-0.1403 -0.465667,-0.17319 -0.307979,-0.0741 -1.182724,-0.97757 -1.257931,-1.29918 -0.03003,-0.12843 -0.106787,-0.34782 -0.170565,-0.48751 -0.17164,-0.37597 -0.326585,-1.40577 -0.363062,-2.413 -0.03385,-0.93481 0.169499,-2.38166 0.437635,-3.11375 0.277948,-0.75889 0.798621,-1.36144 1.468007,-1.69889 0.51851,-0.26138 1.88172,-0.26385 2.45115,-0.004 0.41229,0.18781 1.0017,0.75249 1.09117,1.04538 0.0291,0.0953 0.0959,0.22682 0.14844,0.29214 0.0525,0.0653 0.1396,0.313 0.19354,0.55035 0.0539,0.23734 0.13876,0.58394 0.18848,0.7702 0.1162,0.4353 0.12048,1.52883 0.007,1.74123 -0.0834,0.15581 -0.20062,0.16377 -2.41139,0.16377 h -2.323741 l -0.05569,0.2219 c -0.09381,0.37378 0.02444,1.82871 0.1712,2.10643 0.07382,0.1397 0.134459,0.29898 0.134746,0.35396 9.68e-4,0.18541 0.37471,0.6653 0.675513,0.86738 0.399406,0.26831 1.377092,0.2919 1.724932,0.0416 0.33137,-0.23844 0.79471,-0.96643 0.86001,-1.35122 0.0964,-0.56839 0.12591,-0.61799 0.42579,-0.71696 0.33454,-0.11041 0.59819,-0.0517 0.71056,0.15831 0.11215,0.20955 -0.16611,1.14692 -0.50299,1.69442 -0.27179,0.44172 -1.0095,1.1115 -1.22421,1.1115 -0.0603,0 -0.21885,0.0569 -0.35223,0.12648 -0.30437,0.15874 -1.265929,0.1668 -1.560496,0.0131 z m 2.575377,-5.65926 c 0.0642,-0.10186 0.063,-0.36017 -0.004,-0.89195 -0.18309,-1.45051 -0.87505,-2.08471 -2.1067,-1.93082 -0.396537,0.0495 -0.540588,0.11694 -0.840269,0.39318 -0.198928,0.18337 -0.3819,0.4182 -0.406606,0.52185 -0.0247,0.10365 -0.103498,0.34085 -0.175096,0.52712 -0.133533,0.3474 -0.175404,1.03564 -0.0838,1.37752 l 0.05149,0.19218 1.737365,-0.0229 c 1.524956,-0.0201 1.748416,-0.0404 1.827736,-0.16623 z m 10.21494,5.58595 c -0.6836,-0.27458 -1.04723,-0.70259 -1.22768,-1.44502 -0.0806,-0.33157 -0.14653,-0.7803 -0.14653,-0.99718 0,-0.69331 0.31545,-1.46996 0.78112,-1.92313 0.41331,-0.40223 0.64594,-0.49359 2.49809,-0.98108 0.74792,-0.19686 1.09017,-0.40526 1.20172,-0.73173 0.21775,-0.63732 0.0854,-1.6583 -0.25897,-1.99809 -0.41453,-0.40898 -1.6691,-0.46146 -2.14765,-0.0899 -0.3999,0.31054 -0.51524,0.50404 -0.62419,1.04716 -0.0908,0.45266 -0.13867,0.5388 -0.34743,0.62527 -0.16511,0.0684 -0.32875,0.0752 -0.51447,0.0213 -0.2416,-0.07 -0.27136,-0.11194 -0.26359,-0.37127 0.0288,-0.962 0.54635,-1.83827 1.30696,-2.2129 0.41894,-0.20634 0.55491,-0.2282 1.45016,-0.23306 0.88512,-0.005 1.03075,0.0162 1.40002,0.20164 0.54156,0.27201 0.84873,0.62977 1.04552,1.21772 0.14441,0.43144 0.16198,0.77732 0.17285,3.40127 0.007,1.60655 0.0365,3.03518 0.0664,3.17474 0.0357,0.16669 0.16291,0.32403 0.37098,0.45868 0.51013,0.33012 0.37865,0.87085 -0.21174,0.87085 -0.67278,0 -1.16488,-0.31702 -1.16488,-0.75044 0,-0.32916 -0.14663,-0.29598 -0.56552,0.12796 -0.22448,0.22719 -0.50339,0.44199 -0.61981,0.47733 -0.11642,0.0353 -0.26141,0.10414 -0.32221,0.15285 -0.0608,0.0487 -0.40369,0.10105 -0.762,0.11628 -0.52028,0.0221 -0.74522,-0.01 -1.11712,-0.15934 z m 2.24265,-1.07207 c 0.76246,-0.51589 0.95382,-1.07522 0.96754,-2.82799 0.006,-0.74129 -0.0169,-0.92206 -0.12094,-0.96197 -0.0704,-0.027 -0.17671,-0.009 -0.23616,0.0405 -0.0594,0.0493 -0.25899,0.12804 -0.44343,0.17489 -0.9136,0.23207 -1.13226,0.29892 -1.563,0.47781 -0.31599,0.13123 -0.5541,0.30668 -0.74083,0.54588 -0.26423,0.33848 -0.27517,0.38296 -0.27517,1.11908 0,0.82343 0.10027,1.09909 0.53832,1.47997 0.39525,0.34366 1.33004,0.31961 1.87367,-0.0482 z m 5.7966,1.06849 c -1.24337,-0.502 -1.78111,-1.47138 -1.95156,-3.51803 -0.10791,-1.29569 0.015,-3.21665 0.22694,-3.54782 0.066,-0.10313 0.12003,-0.2564 0.12003,-0.34059 0,-0.20079 0.53843,-1.02763 0.82965,-1.27407 0.12578,-0.10643 0.41279,-0.28741 0.63781,-0.40217 0.35314,-0.1801 0.52367,-0.20865 1.24623,-0.20865 0.69462,0 0.89879,0.0316 1.19954,0.18547 0.82612,0.42273 1.11211,0.76095 1.42248,1.68226 0.26508,0.78687 0.19944,1.01094 -0.29613,1.01094 -0.40189,0 -0.60671,-0.19726 -0.72386,-0.69716 -0.0618,-0.26375 -0.22134,-0.5904 -0.39062,-0.79979 -0.36684,-0.45379 -0.92463,-0.60868 -1.64295,-0.45623 -0.86308,0.18319 -1.20791,0.70315 -1.5199,2.29185 -0.0412,0.20955 -0.0748,0.89535 -0.0748,1.524 0,0.62865 0.0337,1.31445 0.0748,1.524 0.34771,1.77057 0.71974,2.22015 1.83723,2.22015 0.55901,0 0.6413,-0.0231 0.94925,-0.26705 0.40183,-0.31826 0.5904,-0.64926 0.72401,-1.2709 0.12476,-0.58047 0.39251,-0.81587 0.83381,-0.73308 0.38155,0.0716 0.42963,0.21835 0.26263,0.8017 -0.31642,1.10526 -0.94755,1.98321 -1.55918,2.16896 -0.11641,0.0353 -0.26141,0.10414 -0.3222,0.15285 -0.0608,0.0487 -0.4037,0.10083 -0.762,0.1158 -0.5224,0.0218 -0.74452,-0.0104 -1.12121,-0.16244 z m 10.62549,0.003 c -0.86962,-0.39111 -1.18733,-0.80964 -1.31581,-1.73339 -0.10939,-0.7865 -0.0422,-1.46873 0.19014,-1.93025 0.17482,-0.3473 0.80922,-1.05834 0.94426,-1.05834 0.0415,0 0.19547,-0.0558 0.34221,-0.12402 0.14673,-0.0682 0.41919,-0.1617 0.60546,-0.20775 0.87652,-0.21668 1.13616,-0.29227 1.60866,-0.4683 0.43989,-0.16388 0.53355,-0.23887 0.6985,-0.5592 0.22243,-0.43193 0.25316,-1.1331 0.0608,-1.38741 -0.0684,-0.0904 -0.12431,-0.21937 -0.12431,-0.28662 0,-0.43395 -1.03669,-0.79451 -1.78666,-0.62139 -0.44058,0.10169 -0.92267,0.39947 -0.92267,0.56992 0,0.0554 -0.0524,0.14417 -0.11638,0.19729 -0.064,0.0531 -0.13522,0.29278 -0.15827,0.53258 -0.0579,0.60289 -0.43211,0.83303 -0.92528,0.56909 -0.15701,-0.084 -0.1674,-0.14278 -0.11381,-0.64321 0.0636,-0.59391 0.33756,-1.23273 0.65197,-1.52028 0.10786,-0.0986 0.3863,-0.2791 0.61876,-0.40102 0.38609,-0.20249 0.50859,-0.22168 1.41556,-0.22168 0.84871,0 1.04554,0.0265 1.35534,0.18271 0.39561,0.19943 0.91247,0.64447 0.9133,0.7864 2.9e-4,0.0491 0.067,0.20353 0.14817,0.34323 0.13216,0.22737 0.15026,0.59544 0.17264,3.51124 0.0277,3.60677 0.001,3.44337 0.59292,3.69051 0.23729,0.0991 0.27836,0.15583 0.25572,0.35284 -0.02,0.17361 -0.10795,0.27432 -0.33795,0.38675 -0.29392,0.14369 -0.33465,0.14428 -0.74288,0.0108 -0.46913,-0.15344 -0.76648,-0.45093 -0.76648,-0.76685 0,-0.11014 -0.0139,-0.20025 -0.0308,-0.20025 -0.017,0 -0.2195,0.18571 -0.45008,0.41268 -0.23058,0.22698 -0.51198,0.44119 -0.62533,0.47603 -0.11334,0.0348 -0.25582,0.10321 -0.31662,0.15192 -0.0608,0.0487 -0.4037,0.10202 -0.762,0.11845 -0.53793,0.0247 -0.72598,-0.004 -1.07905,-0.16244 z m 2.16002,-1.03693 c 0.41413,-0.26143 0.75851,-0.70903 0.86312,-1.12177 0.0446,-0.17578 0.11604,-0.45296 0.15887,-0.61594 0.0979,-0.37238 0.10651,-2.09147 0.0108,-2.15061 -0.0391,-0.0242 -0.21041,0.0307 -0.3807,0.122 -0.17028,0.0913 -0.41452,0.16729 -0.54274,0.16894 -0.12823,0.002 -0.32839,0.0574 -0.44481,0.124 -0.11642,0.0666 -0.29361,0.12235 -0.39376,0.124 -0.23971,0.004 -0.96314,0.34205 -1.18671,0.55461 -0.7116,0.67659 -0.7129,1.95899 -0.003,2.73107 0.37546,0.40822 1.32308,0.43969 1.91868,0.0637 z m 5.41975,1.02941 c -0.99392,-0.33246 -1.4824,-1.01212 -1.53239,-2.13212 -0.0146,-0.32598 0.003,-0.64029 0.0394,-0.6985 0.0853,-0.13707 0.78797,-0.13798 0.87254,-0.001 0.0356,0.0576 0.074,0.26456 0.0853,0.45996 0.0271,0.46692 0.36569,1.11977 0.71323,1.37531 0.24567,0.18064 0.36501,0.2039 1.03022,0.20078 0.70499,-0.003 0.772,-0.0194 1.06426,-0.25469 0.82068,-0.66086 0.92006,-1.74356 0.22392,-2.4397 -0.22238,-0.22238 -0.77862,-0.54702 -0.93725,-0.54702 -0.0696,0 -0.26746,-0.075 -0.43967,-0.16659 -0.1722,-0.0916 -0.55759,-0.25948 -0.85641,-0.37302 -0.78607,-0.29869 -1.39948,-0.86445 -1.56882,-1.44699 -0.16667,-0.57331 -0.1657,-0.91319 0.005,-1.58373 0.17953,-0.70711 0.58022,-1.20016 1.19705,-1.47294 0.39977,-0.1768 0.59572,-0.20608 1.37978,-0.20608 0.80135,0 0.96476,0.0256 1.32747,0.20777 0.7171,0.36018 1.03357,0.87334 1.10046,1.78446 0.0523,0.71214 -0.0319,0.8255 -0.58375,0.78578 l -0.36609,-0.0263 -0.0423,-0.51482 c -0.0322,-0.39112 -0.0991,-0.58919 -0.27861,-0.82436 -0.27922,-0.36582 -0.40794,-0.44198 -0.87849,-0.51991 -0.61943,-0.10256 -1.12092,0.0252 -1.50492,0.38338 l -0.34365,0.32055 v 0.72018 c 0,0.6808 0.0135,0.73433 0.24774,0.97877 0.13626,0.14222 0.32676,0.28258 0.42333,0.31191 0.0966,0.0293 0.23275,0.10242 0.3026,0.16243 0.0699,0.06 0.28731,0.15179 0.48326,0.20395 0.19594,0.0522 0.37916,0.13191 0.40716,0.17721 0.028,0.0453 0.12025,0.0824 0.20501,0.0824 0.25788,0 1.05044,0.40195 1.42539,0.72289 0.55578,0.47573 0.78177,1.01151 0.7783,1.84523 -0.002,0.50558 -0.0469,0.78262 -0.16646,1.03021 -0.09,0.18628 -0.16488,0.37877 -0.16646,0.42779 -0.002,0.049 -0.15665,0.24445 -0.34461,0.43428 -0.72578,0.73304 -2.12859,0.98492 -3.30108,0.59273 z m -11.23991,-0.025 c -0.29246,-0.0717 -0.61964,-0.21312 -0.72707,-0.31437 -0.35328,-0.33292 -0.3922,-0.76492 -0.3922,-4.3533 0,-2.51177 -0.026,-3.40055 -0.1016,-3.47618 -0.0559,-0.0559 -0.2439,-0.10159 -0.41782,-0.10159 -0.48945,0 -0.75058,-0.13015 -0.75058,-0.3741 0,-0.27922 0.29522,-0.47256 0.72157,-0.47256 0.18988,0 0.39095,-0.0457 0.44683,-0.1016 0.067,-0.067 0.1016,-0.42587 0.1016,-1.05282 0,-1.25367 0.0519,-1.38558 0.54526,-1.38558 0.28916,0 0.40109,0.0392 0.46776,0.16377 0.0482,0.0901 0.0876,0.6188 0.0876,1.17496 0,0.72428 0.0311,1.03701 0.10961,1.10217 0.0603,0.05 0.39367,0.10233 0.74084,0.1162 l 0.63121,0.0252 v 0.381 0.381 l -0.71966,0.0423 -0.71967,0.0423 -0.0221,3.44255 -0.0221,3.44255 0.21683,0.25768 c 0.19252,0.2288 0.27568,0.2605 0.74178,0.28279 l 0.52494,0.0251 0.0255,0.30359 c 0.0165,0.19643 -0.0209,0.34204 -0.10588,0.41257 -0.19977,0.1658 -0.79079,0.18131 -1.38263,0.0363 z m -48.426774,-0.12963 c -0.16613,-0.16694 -0.152727,-8.64883 0.01389,-8.78711 0.08767,-0.0728 0.863888,-0.0925 2.899834,-0.0739 3.061913,0.0281 3.013212,0.0203 3.78185,0.60724 0.780516,0.59607 0.958022,1.79658 0.392931,2.65748 -0.160737,0.24488 -0.359318,0.46652 -0.441291,0.49254 -0.226955,0.072 -0.178803,0.35467 0.08379,0.49183 0.2771,0.14474 0.595387,0.49072 0.826777,0.89873 0.136358,0.24044 0.16746,0.4504 0.164894,1.11316 -0.0033,0.86131 -0.09969,1.17316 -0.528989,1.71205 -0.204325,0.25649 -0.729928,0.64612 -0.871587,0.64612 -0.04614,0 -0.185558,0.0667 -0.309825,0.14817 -0.201673,0.13225 -0.530992,0.15095 -3.066188,0.17408 -2.195079,0.02 -2.864288,0.002 -2.946082,-0.0804 z m 5.963154,-0.2133 c 1.081475,-0.41387 1.646554,-1.24066 1.644364,-2.40595 -9.71e-4,-0.51635 -0.04311,-0.7252 -0.215653,-1.06872 -0.201941,-0.40205 -0.580991,-0.77353 -0.914865,-0.89659 -0.209363,-0.0772 -0.197694,-0.48616 0.01546,-0.5419 0.148569,-0.0388 0.388438,-0.34596 0.664191,-0.85037 0.118916,-0.21753 0.141041,-1.25913 0.02823,-1.32886 -0.04141,-0.0256 -0.101015,-0.15165 -0.132459,-0.28016 -0.06024,-0.24618 -0.688019,-0.86831 -0.876399,-0.8685 -0.06076,-7e-5 -0.278959,-0.0769 -0.48488,-0.17068 -0.353203,-0.1609 -0.521926,-0.16929 -2.979855,-0.14817 l -2.605453,0.0224 -0.02203,4.27567 c -0.01211,2.35162 -0.0029,4.3257 0.02057,4.38688 0.03433,0.0896 0.564787,0.10456 2.731361,0.077 2.427014,-0.0309 2.731461,-0.0505 3.127413,-0.20206 z m -3.677154,-1.56028 c -0.143572,-0.15027 -0.147212,-1.94899 -0.0042,-2.09197 0.165328,-0.16533 2.128755,-0.13595 2.493884,0.0373 0.420058,0.19933 0.706584,0.60996 0.7062,1.01207 -3.58e-4,0.37375 -0.238084,0.82139 -0.514878,0.96953 -0.283034,0.15147 -2.547103,0.21317 -2.680973,0.073 z m 2.712095,-0.27583 c 0.286275,-0.23432 0.381441,-0.69709 0.234755,-1.14155 -0.15745,-0.47708 -0.550515,-0.60686 -1.838014,-0.60686 -0.858585,0 -1.035656,0.022 -1.078611,0.13393 -0.06984,0.18199 -0.06551,1.6864 0.0051,1.75696 0.03105,0.031 0.59302,0.0551 1.248833,0.0534 1.113052,-0.003 1.208065,-0.0159 1.427984,-0.19588 z m -2.716328,-3.28934 c -0.137834,-0.13783 -0.137834,-1.6063 0,-1.74413 0.158836,-0.15884 1.799345,-0.13332 2.239651,0.0348 0.454677,0.17364 0.685092,0.64377 0.536373,1.09439 -0.109842,0.33283 -0.252603,0.46309 -0.66496,0.60677 -0.400876,0.13967 -1.973469,0.14574 -2.111064,0.008 z m 2.414424,-0.34394 c 0.18093,-0.18093 0.23078,-0.30791 0.223899,-0.57033 -0.01088,-0.41476 -0.127817,-0.56478 -0.526587,-0.67554 -0.403153,-0.11198 -1.755049,-0.11125 -1.964902,0.001 -0.139308,0.0746 -0.163767,0.18141 -0.163767,0.71546 0,0.50676 0.02857,0.64538 0.148166,0.71891 0.0894,0.055 0.525388,0.0816 1.099303,0.0671 0.909798,-0.0229 0.961253,-0.0341 1.183888,-0.25671 z m 3.589126,5.66357 c -0.07836,-0.0944 -0.06383,-0.2006 0.06693,-0.48915 0.09186,-0.2027 0.250996,-0.59715 0.353641,-0.87655 0.102645,-0.2794 0.233773,-0.6223 0.291394,-0.762 0.05762,-0.1397 0.147544,-0.37782 0.199826,-0.52916 0.05228,-0.15134 0.137835,-0.39899 0.190118,-0.55034 0.05228,-0.15134 0.141604,-0.38946 0.198493,-0.52916 0.102178,-0.25091 0.208883,-0.54314 0.394173,-1.0795 0.05228,-0.15134 0.142204,-0.38947 0.199826,-0.52917 0.247904,-0.60102 0.467327,-1.19471 0.469988,-1.27163 0.0016,-0.0457 0.07649,-0.23544 0.166461,-0.4217 0.08997,-0.18627 0.16488,-0.39687 0.16646,-0.46799 0.0016,-0.0711 0.05424,-0.20448 0.117026,-0.29634 0.06278,-0.0918 0.139436,-0.29785 0.170339,-0.45778 0.10856,-0.56183 0.199197,-0.59823 1.489697,-0.59823 1.211011,0 1.358478,0.0412 1.358478,0.3791 0,0.0967 0.05228,0.25105 0.116182,0.3429 0.0639,0.0918 0.144968,0.30035 0.180151,0.46334 0.03518,0.16298 0.116252,0.37148 0.180152,0.46334 0.0639,0.0918 0.117474,0.2252 0.119054,0.29633 0.0016,0.0711 0.07649,0.28173 0.166461,0.46799 0.08997,0.18627 0.16488,0.41973 0.16646,0.5188 0.0016,0.0991 0.06002,0.22757 0.129873,0.28554 0.06985,0.058 0.127,0.18702 0.127,0.28679 0,0.0998 0.0762,0.32356 0.169333,0.49732 0.09313,0.17377 0.169334,0.3838 0.169334,0.46674 0,0.0829 0.05228,0.22596 0.116181,0.31781 0.0639,0.0919 0.144969,0.30035 0.180152,0.46334 0.03518,0.16298 0.116252,0.37148 0.180152,0.46334 0.0639,0.0919 0.116181,0.23486 0.116181,0.3178 0,0.0829 0.0762,0.29298 0.169334,0.46674 0.09313,0.17377 0.170545,0.39271 0.172026,0.48653 0.0015,0.0938 0.05863,0.24455 0.127,0.33494 0.06837,0.0904 0.124307,0.2243 0.124307,0.29758 0,0.0733 0.07833,0.27939 0.174062,0.45801 0.09955,0.18572 0.162977,0.43891 0.148167,0.59141 l -0.0259,0.26665 -1.113387,0.0236 c -1.201256,0.0254 -1.380902,-0.0305 -1.387152,-0.43178 -0.0016,-0.10144 -0.07649,-0.33685 -0.166461,-0.52312 -0.08997,-0.18626 -0.16488,-0.38629 -0.16646,-0.4445 -0.0022,-0.0807 -0.373794,-0.10583 -1.567593,-0.10583 h -1.56472 l -0.04981,0.23283 c -0.02739,0.12806 -0.09297,0.32809 -0.145725,0.4445 -0.05275,0.11642 -0.137013,0.34502 -0.187241,0.508 l -0.09132,0.29634 -1.149283,0.0235 c -0.912655,0.0187 -1.169889,-10e-4 -1.249366,-0.0971 z m 2.399917,-0.3497 c 0.04873,-0.18626 0.136225,-0.42188 0.194433,-0.5236 0.05821,-0.10171 0.105833,-0.26229 0.105833,-0.35685 0,-0.0946 0.0737,-0.21136 0.163767,-0.25957 0.186162,-0.0996 2.957835,-0.12001 3.106227,-0.0229 0.131583,0.0862 0.455339,0.81939 0.455339,1.03123 0,0.0957 0.0762,0.25018 0.169334,0.34331 0.149754,0.14976 0.282222,0.16933 1.145657,0.16933 1.12461,0 1.163323,-0.027 0.892227,-0.62208 -0.09637,-0.21154 -0.175218,-0.43658 -0.175218,-0.50009 0,-0.0635 -0.05594,-0.18942 -0.124307,-0.27981 -0.06837,-0.0904 -0.12577,-0.2596 -0.127558,-0.37602 -0.0018,-0.11641 -0.07895,-0.32596 -0.171468,-0.46566 -0.09252,-0.1397 -0.168469,-0.33125 -0.168775,-0.42566 -3.07e-4,-0.0944 -0.05284,-0.24682 -0.11674,-0.33867 -0.0639,-0.0918 -0.144968,-0.30036 -0.180152,-0.46334 -0.03518,-0.16298 -0.116251,-0.37148 -0.180151,-0.46334 -0.0639,-0.0918 -0.116182,-0.23486 -0.116182,-0.3178 0,-0.0829 -0.0762,-0.29298 -0.169333,-0.46674 -0.09313,-0.17377 -0.169334,-0.39757 -0.169334,-0.49733 0,-0.0998 -0.05715,-0.22882 -0.127,-0.28679 -0.06985,-0.058 -0.127,-0.18702 -0.127,-0.28679 0,-0.0998 -0.0762,-0.32356 -0.169333,-0.49732 -0.09313,-0.17377 -0.169333,-0.3838 -0.169333,-0.46674 0,-0.0829 -0.05228,-0.22596 -0.116182,-0.31781 -0.0639,-0.0918 -0.144968,-0.30036 -0.180152,-0.46334 -0.03518,-0.16298 -0.116251,-0.37148 -0.180151,-0.46334 -0.0639,-0.0918 -0.116182,-0.27148 -0.116182,-0.39919 0,-0.3419 -0.209755,-0.40747 -1.303469,-0.40747 -0.898125,0 -0.989848,0.0149 -1.15044,0.18731 -0.09598,0.10302 -0.197467,0.3309 -0.22553,0.5064 -0.02806,0.1755 -0.103421,0.36258 -0.16746,0.41573 -0.06404,0.0531 -0.117727,0.17769 -0.119307,0.27676 -0.0016,0.0991 -0.07649,0.33253 -0.16646,0.5188 -0.08997,0.18627 -0.164881,0.37603 -0.166461,0.4217 -0.0038,0.10907 -0.330178,0.95583 -0.478898,1.24236 -0.06415,0.12361 -0.116641,0.28567 -0.116641,0.36015 0,0.0745 -0.0762,0.27758 -0.169334,0.45134 -0.09313,0.17377 -0.169333,0.39376 -0.169333,0.48886 0,0.0951 -0.05137,0.24807 -0.114153,0.33992 -0.06278,0.0918 -0.138473,0.29304 -0.168199,0.44709 -0.02973,0.15404 -0.111707,0.33774 -0.182181,0.40821 -0.07047,0.0705 -0.128134,0.22431 -0.128134,0.34186 0,0.11754 -0.05249,0.31485 -0.116641,0.43845 -0.186668,0.35965 -0.476025,1.14713 -0.476025,1.2955 0,0.0749 -0.05715,0.18359 -0.127,0.24156 -0.06985,0.058 -0.127,0.17804 -0.127,0.26683 0,0.15183 0.06644,0.16002 1.1179,0.1378 l 1.117901,-0.0236 z m 1.168099,-2.83897 c -0.222785,-0.0896 -0.238296,-0.22502 -0.06402,-0.55918 0.06956,-0.13338 0.126713,-0.32958 0.127,-0.43599 2.87e-4,-0.10641 0.0534,-0.27786 0.118018,-0.381 0.06462,-0.10314 0.144233,-0.33992 0.17691,-0.52619 0.03268,-0.18627 0.09334,-0.37975 0.134806,-0.42996 0.04147,-0.0502 0.105855,-0.23791 0.143087,-0.41711 0.03723,-0.1792 0.113384,-0.34104 0.169226,-0.35966 0.119772,-0.0399 0.528474,0.80907 0.528474,1.0978 0,0.10904 0.05137,0.27341 0.114153,0.36526 0.06278,0.0918 0.139123,0.30035 0.169642,0.46334 0.03052,0.16298 0.119784,0.41759 0.198367,0.5658 0.116387,0.21951 0.124515,0.30977 0.04384,0.48684 -0.09625,0.21125 -0.121104,0.21721 -0.884019,0.21199 -0.43174,-0.003 -0.870707,-0.0398 -0.975482,-0.0819 z m 1.573159,-0.13717 c 0.133572,-0.0358 0.182635,-0.097 0.151854,-0.18935 -0.02501,-0.0751 -0.08989,-0.30796 -0.144178,-0.51751 -0.05429,-0.20955 -0.151198,-0.48212 -0.215354,-0.60573 -0.06416,-0.1236 -0.116647,-0.30421 -0.116647,-0.40135 0,-0.21905 -0.345332,-1.02492 -0.439199,-1.02492 -0.03784,0 -0.06904,0.0857 -0.06932,0.1905 -2.87e-4,0.10478 -0.05601,0.29689 -0.123834,0.42691 -0.06782,0.13003 -0.148802,0.37768 -0.179956,0.55034 -0.03115,0.17266 -0.09265,0.38355 -0.136652,0.46864 -0.044,0.0851 -0.128937,0.34335 -0.188739,0.57389 -0.09589,0.36966 -0.09262,0.42858 0.02765,0.49887 0.153949,0.09 1.133544,0.11026 1.434375,0.0297 z m 11.962962,3.3276 c -0.0792,-0.0954 -0.0753,-0.14763 0.0176,-0.2406 0.0653,-0.0653 0.14749,-0.21223 0.18262,-0.32647 0.0351,-0.11425 0.0951,-0.24712 0.13336,-0.29527 0.0382,-0.0482 0.3513,-0.6387 0.69572,-1.31233 0.34441,-0.67363 0.74029,-1.43434 0.87971,-1.69045 0.28865,-0.53021 0.38213,-0.82692 0.28034,-0.88983 -0.0386,-0.0238 -0.19066,-0.28105 -0.33799,-0.57159 -0.14734,-0.29053 -0.49015,-0.94735 -0.76181,-1.45958 -0.27165,-0.51224 -0.59597,-1.12644 -0.7207,-1.3649 -0.30739,-0.58768 -0.26634,-0.74459 0.20364,-0.77834 0.30725,-0.0221 0.41052,0.0123 0.60899,0.2024 0.13144,0.12594 0.26282,0.33748 0.29195,0.4701 0.0291,0.13262 0.0832,0.2598 0.1201,0.28263 0.0369,0.0228 0.1716,0.26138 0.29926,0.53014 0.12766,0.26875 0.26357,0.54579 0.30202,0.61564 0.16871,0.30654 0.49337,0.98744 0.54094,1.13452 0.0495,0.153 0.0622,0.15125 0.26149,-0.0359 0.1152,-0.10823 0.20945,-0.26409 0.20945,-0.34636 0,-0.0823 0.0354,-0.17147 0.0787,-0.19823 0.0433,-0.0268 0.35624,-0.61725 0.6954,-1.31218 0.6515,-1.33488 0.67051,-1.35511 1.27606,-1.35734 0.46579,-0.002 0.52703,0.19337 0.22555,0.71851 -0.26543,0.46237 -0.28149,0.49364 -0.41293,0.80434 -0.0493,0.11641 -0.23762,0.47836 -0.4186,0.80433 -0.55372,0.99737 -1.02088,1.94722 -1.02088,2.07572 0,0.12383 0.76465,1.66834 1.36159,2.75028 0.17985,0.32597 0.36791,0.68792 0.41792,0.80433 0.05,0.11642 0.16412,0.36168 0.25359,0.54502 0.209,0.42829 0.11299,0.55565 -0.41888,0.55565 -0.34177,0 -0.42283,-0.0349 -0.5823,-0.25057 -0.10189,-0.13781 -0.18525,-0.27688 -0.18525,-0.30905 0,-0.0322 -0.28575,-0.63881 -0.635,-1.34811 -0.34925,-0.70931 -0.635,-1.32634 -0.635,-1.37118 0,-0.1096 -0.28498,-0.36177 -0.40883,-0.36177 -0.0545,0 -0.0992,0.0667 -0.0993,0.14817 -6e-5,0.0815 -0.37205,0.89112 -0.82664,1.79917 l -0.82654,1.651 -0.47215,0.025 c -0.33218,0.0176 -0.50214,-0.0111 -0.57329,-0.0969 z m 55.81775,-0.49962 c -0.26873,-0.24448 -1.21478,-1.15416 -2.10232,-2.02153 -3.79669,-3.71036 -3.88962,-3.79594 -4.12385,-3.79766 -0.12327,-9.1e-4 -0.48522,0.12651 -0.80433,0.28315 -0.9881,0.48502 -1.84071,0.89121 -2.06187,0.9823 -0.11641,0.0479 -0.26881,0.12155 -0.33866,0.16357 -0.0699,0.042 -0.3175,0.1624 -0.55034,0.2675 -0.23283,0.1051 -0.48048,0.22345 -0.55033,0.263 -0.0699,0.0396 -0.18415,0.094 -0.254,0.12096 -0.0699,0.027 -0.3937,0.17619 -0.71967,0.33158 -2.89239,1.37886 -2.88131,1.37465 -3.00582,1.142 -0.16441,-0.30719 -0.0991,-0.71605 0.15296,-0.95753 0.1306,-0.12513 0.2998,-0.22751 0.376,-0.22751 0.0762,0 0.16094,-0.0362 0.18833,-0.0806 0.0274,-0.0443 0.38205,-0.24965 0.78816,-0.45632 0.73317,-0.37312 1.2359,-0.63579 3.02437,-1.58026 0.51224,-0.27051 1.31234,-0.68863 1.778,-0.92916 0.46567,-0.24054 1.01812,-0.5336 1.22767,-0.65125 0.80533,-0.45214 0.79163,-0.45534 1.60576,0.37541 0.39875,0.40689 1.12058,1.15891 1.60406,1.67114 0.48347,0.51223 1.79737,1.87802 2.91978,3.03508 1.31645,1.3571 2.05024,2.17593 2.06752,2.30716 0.0248,0.18854 -0.001,0.20343 -0.35301,0.20343 -0.33968,0 -0.43141,-0.0469 -0.86841,-0.4445 z m -14.51386,0.18521 c -0.2138,-0.39949 0.0513,-1.18005 0.40073,-1.18005 0.0724,0 0.403,-0.12881 0.73469,-0.28625 0.61661,-0.29268 1.00959,-0.46757 1.83074,-0.81474 0.25612,-0.10829 0.74335,-0.32396 1.08273,-0.47928 0.33939,-0.15531 0.64168,-0.28239 0.67177,-0.28239 0.0301,0 0.22866,-0.0799 0.44127,-0.17749 0.21261,-0.0976 0.50086,-0.22862 0.64056,-0.29113 0.1397,-0.0625 0.53975,-0.24312 0.889,-0.40137 0.34925,-0.15825 0.817,-0.37015 1.03944,-0.47087 0.22243,-0.10073 0.47221,-0.18314 0.55505,-0.18314 0.19244,0 0.52045,0.24376 1.39017,1.03309 0.38409,0.3486 1.02219,0.90901 1.41801,1.24537 1.78043,1.513 2.49847,2.1556 2.4892,2.2277 -0.005,0.0362 -0.0142,0.10394 -0.0212,0.1505 -0.0176,0.11761 -0.8521,0.0992 -1.13031,-0.025 -0.12574,-0.0561 -0.35434,-0.20598 -0.508,-0.33304 -0.15366,-0.12706 -0.64991,-0.50806 -1.10277,-0.84667 -0.45286,-0.3386 -1.15273,-0.86329 -1.55527,-1.16597 -0.97675,-0.73446 -0.90752,-0.70806 -1.33997,-0.51106 -0.20813,0.0948 -0.42813,0.1736 -0.4889,0.17508 -0.0608,0.001 -0.18443,0.0586 -0.27483,0.127 -0.0904,0.0684 -0.22842,0.12431 -0.30673,0.12431 -0.1277,0 -0.44774,0.12114 -1.22225,0.46263 -0.1397,0.0616 -0.47307,0.19225 -0.74083,0.29035 -1.44982,0.53115 -1.69903,0.62954 -2.35878,0.93123 -0.21465,0.0981 -0.43243,0.17846 -0.48396,0.17846 -0.0893,0 -0.30073,0.0823 -1.0096,0.39326 -0.17462,0.0766 -0.46164,0.16696 -0.63782,0.20081 -0.26193,0.0503 -0.33526,0.0337 -0.40217,-0.0914 z m 4.607,0.0517 c -0.0724,-0.1886 0.0213,-0.2757 0.36613,-0.34039 0.17353,-0.0326 0.41971,-0.11307 0.54707,-0.17893 0.12735,-0.0659 0.30012,-0.11997 0.38392,-0.12026 0.0838,-2.9e-4 0.25151,-0.0523 0.37268,-0.11548 0.12117,-0.0632 0.55932,-0.21856 0.97367,-0.34518 0.41434,-0.12662 0.82956,-0.25954 0.92269,-0.29539 0.16736,-0.0644 0.27905,-0.0113 1.16417,0.55385 0.85663,0.54695 0.99483,0.65904 0.99483,0.8069 0,0.15085 -0.12549,0.15782 -2.83899,0.15782 -2.40383,0 -2.84622,-0.0188 -2.88617,-0.12294 z m 11.48249,-0.65105 c -0.34925,-0.38028 -0.76853,-0.82842 -0.93173,-0.99588 -0.1632,-0.16745 -0.7347,-0.79834 -1.27,-1.40197 -0.5353,-0.60362 -1.08757,-1.21709 -1.22727,-1.36325 -0.46141,-0.48276 -1.87227,-2.01776 -2.32959,-2.53458 -0.24724,-0.2794 -0.79084,-0.8772 -1.20801,-1.32845 l -0.75848,-0.82045 -0.68829,0.37534 c -0.37856,0.20644 -0.78354,0.41779 -0.89996,0.46967 -0.11642,0.0519 -0.26882,0.12778 -0.33867,0.16868 -0.0699,0.0409 -0.24617,0.12819 -0.39183,0.19398 -0.14565,0.0658 -0.29078,0.16161 -0.32249,0.21293 -0.0317,0.0513 -0.12579,0.0933 -0.20905,0.0933 -0.0833,0 -0.23924,0.0762 -0.34663,0.16934 -0.10738,0.0931 -0.25799,0.16933 -0.33468,0.16933 -0.0767,0 -0.17966,0.0402 -0.2288,0.0893 -0.10062,0.10062 -0.26165,0.18975 -1.49005,0.82473 -0.47711,0.24663 -1.24847,0.6553 -1.71413,0.90818 -1.16136,0.63067 -1.22516,0.65589 -1.36497,0.53987 -0.14788,-0.12273 -0.15441,-0.97217 -0.01,-1.25173 0.0575,-0.11107 0.29509,-0.30386 0.52792,-0.42843 0.23283,-0.12458 0.59478,-0.33772 0.80433,-0.47367 0.43453,-0.2819 0.46272,-0.29924 1.23249,-0.75863 0.31212,-0.18627 0.66732,-0.40541 0.78933,-0.48701 0.12202,-0.0816 0.33615,-0.20769 0.47585,-0.28024 0.34189,-0.17754 0.49217,-0.26901 1.18533,-0.72145 0.32597,-0.21276 0.81585,-0.51729 1.08862,-0.67672 0.27278,-0.15945 0.59663,-0.35601 0.71967,-0.43682 0.12304,-0.0808 0.31819,-0.18796 0.43366,-0.23813 0.11547,-0.0502 0.22977,-0.11925 0.254,-0.15349 0.0242,-0.0342 0.22318,-0.16574 0.44211,-0.2922 l 0.39806,-0.22993 0.23694,0.24161 c 0.41288,0.42102 0.73892,0.80077 1.24838,1.45404 0.27236,0.34925 0.54137,0.67338 0.59779,0.72029 0.0564,0.0469 0.34266,0.3898 0.63609,0.762 0.29342,0.37219 0.67026,0.83117 0.83742,1.01994 0.50928,0.57512 0.72096,0.83253 0.86658,1.05377 0.0766,0.11642 0.2225,0.29903 0.32417,0.40579 0.23968,0.2517 0.94738,1.08875 1.48385,1.75507 0.54595,0.6781 1.26582,1.53776 1.55822,1.86081 0.12644,0.1397 0.39134,0.45972 0.58866,0.71115 0.32958,0.41997 0.35671,0.49226 0.3336,0.889 -0.0387,0.66489 -0.22804,0.62411 -0.99882,-0.21514 z"
         id="path2" /><path
         style="fill:#242324"
         d="m 72.100944,173.51371 c -0.1397,-0.0448 -0.477018,-0.11536 -0.749596,-0.15686 -0.272578,-0.0415 -0.561328,-0.13494 -0.641667,-0.20765 -0.08034,-0.0727 -0.196639,-0.13219 -0.258444,-0.13219 -0.296802,0 -1.183516,-1.20897 -1.185852,-1.61683 -4.26e-4,-0.0743 -0.0584,-0.25067 -0.128841,-0.39187 -0.108567,-0.21763 -0.124682,-0.72563 -0.105834,-3.33618 l 0.02223,-3.07946 h 1.016 1.016 l 0.04526,2.921 c 0.04953,3.19627 0.076,3.37564 0.56237,3.81021 0.366369,0.32735 1.059996,0.45874 1.639234,0.3105 0.375364,-0.0961 0.521149,-0.19069 0.799442,-0.51891 l 0.340361,-0.40143 0.04233,-3.06068 0.04233,-3.06069 0.919098,-0.0241 c 0.642195,-0.0169 0.957522,0.008 1.046635,0.0817 0.110523,0.0917 0.12331,0.53056 0.09584,3.28913 -0.02733,2.74471 -0.05043,3.21188 -0.167699,3.39085 -0.0748,0.11416 -0.16286,0.32984 -0.195684,0.47929 -0.122707,0.55868 -1.379485,1.54473 -1.971801,1.54704 -0.128915,5.1e-4 -0.421422,0.0577 -0.650015,0.127 -0.463228,0.14053 -1.14538,0.15394 -1.53171,0.0301 z m -6.106469,-0.11849 c -0.317774,-0.13934 -0.624531,-0.68081 -0.624531,-1.10238 0,-0.22873 0.07907,-0.3814 0.34945,-0.67472 0.328417,-0.35629 0.376138,-0.37911 0.79286,-0.37911 0.365938,0 0.487618,0.0407 0.69643,0.23283 0.226214,0.20817 0.529543,0.73305 0.533378,0.92296 7.98e-4,0.0395 -0.08493,0.24628 -0.1905,0.45945 -0.291108,0.58778 -0.937895,0.81249 -1.557087,0.54097 z m 12.455015,-0.14 c -0.02343,-0.0612 -0.03269,-2.03525 -0.02057,-4.38687 l 0.02203,-4.27567 2.605453,-0.0224 c 2.457929,-0.0211 2.626652,-0.0127 2.979855,0.14817 0.205921,0.0938 0.424117,0.17061 0.48488,0.17068 0.18838,2e-4 0.816157,0.62233 0.876399,0.8685 0.03144,0.1285 0.09105,0.25457 0.132459,0.28016 0.112813,0.0697 0.09069,1.11133 -0.02823,1.32886 -0.275753,0.50441 -0.515622,0.81152 -0.664191,0.85037 -0.213155,0.0557 -0.224824,0.46474 -0.01546,0.5419 0.333874,0.12306 0.712924,0.49454 0.914865,0.89659 0.172541,0.34352 0.214682,0.55236 0.215653,1.06872 0.0022,1.16529 -0.562889,1.99208 -1.644364,2.40595 -0.395952,0.15152 -0.700399,0.17119 -3.127413,0.20205 -2.166574,0.0275 -2.697033,0.0126 -2.731361,-0.077 z m 4.862593,-1.75836 c 0.276794,-0.14814 0.51452,-0.59578 0.514878,-0.96953 3.84e-4,-0.40211 -0.286142,-0.81273 -0.7062,-1.01207 -0.365129,-0.17327 -2.328556,-0.20265 -2.493884,-0.0373 -0.142979,0.14298 -0.139339,1.9417 0.0042,2.09197 0.13387,0.14012 2.397939,0.0784 2.680973,-0.073 z m -0.574142,-3.50026 c 0.412357,-0.14368 0.555118,-0.27394 0.66496,-0.60677 0.148719,-0.45062 -0.0817,-0.92075 -0.536373,-1.09439 -0.440306,-0.16815 -2.080815,-0.19367 -2.239651,-0.0348 -0.137834,0.13783 -0.137834,1.6063 0,1.74413 0.137595,0.1376 1.710188,0.13153 2.111064,-0.008 z m 3.968003,5.20257 c 0,-0.0888 0.05715,-0.20885 0.127,-0.26683 0.06985,-0.058 0.127,-0.16667 0.127,-0.24155 0,-0.14837 0.289357,-0.93585 0.476025,-1.2955 0.06415,-0.12361 0.116641,-0.32091 0.116641,-0.43845 0,-0.11755 0.05766,-0.27139 0.128134,-0.34186 0.07047,-0.0705 0.152455,-0.25417 0.182181,-0.40821 0.02973,-0.15405 0.105415,-0.35524 0.168199,-0.44709 0.06278,-0.0918 0.114153,-0.24482 0.114153,-0.33992 0,-0.0951 0.0762,-0.31509 0.169333,-0.48886 0.09313,-0.17376 0.169334,-0.37687 0.169334,-0.45134 0,-0.0745 0.05249,-0.23654 0.116641,-0.36015 0.14872,-0.28653 0.475124,-1.13329 0.478898,-1.24236 0.0016,-0.0457 0.07649,-0.23543 0.166461,-0.4217 0.08997,-0.18627 0.16488,-0.41972 0.16646,-0.5188 0.0016,-0.0991 0.05527,-0.22362 0.119307,-0.27676 0.06404,-0.0532 0.139396,-0.24023 0.16746,-0.41573 0.02806,-0.1755 0.129552,-0.40338 0.22553,-0.5064 0.160592,-0.17237 0.252315,-0.18731 1.15044,-0.18731 1.093714,0 1.303469,0.0656 1.303469,0.40747 0,0.12771 0.05228,0.30734 0.116182,0.39919 0.0639,0.0919 0.144968,0.30036 0.180151,0.46334 0.03518,0.16298 0.116252,0.37149 0.180152,0.46334 0.0639,0.0918 0.116182,0.23487 0.116182,0.31781 0,0.0829 0.0762,0.29297 0.169333,0.46674 0.09313,0.17376 0.169333,0.39756 0.169333,0.49732 0,0.0998 0.05715,0.22882 0.127,0.28679 0.06985,0.058 0.127,0.18703 0.127,0.28679 0,0.0998 0.0762,0.32355 0.169334,0.49733 0.09313,0.17376 0.169333,0.3838 0.169333,0.46674 0,0.0829 0.05228,0.22595 0.116182,0.3178 0.0639,0.0919 0.144968,0.30036 0.180151,0.46333 0.03518,0.16298 0.116252,0.37149 0.180152,0.46334 0.0639,0.0918 0.116433,0.24425 0.11674,0.33867 3.06e-4,0.0944 0.07626,0.28596 0.168775,0.42566 0.09252,0.1397 0.16968,0.34925 0.171468,0.46566 0.0018,0.11643 0.05919,0.28563 0.127558,0.37603 0.06837,0.0904 0.124307,0.21631 0.124307,0.27981 0,0.0635 0.07885,0.28854 0.175218,0.50009 0.271096,0.59509 0.232383,0.62208 -0.892227,0.62208 -0.863435,0 -0.995903,-0.0196 -1.145657,-0.16933 -0.09313,-0.0931 -0.169334,-0.24762 -0.169334,-0.34331 0,-0.21184 -0.323756,-0.94506 -0.455339,-1.03123 -0.148392,-0.0972 -2.920065,-0.0768 -3.106227,0.0229 -0.09007,0.0482 -0.163767,0.16501 -0.163767,0.25957 0,0.0946 -0.04763,0.25514 -0.105833,0.35685 -0.05821,0.10172 -0.145703,0.33734 -0.194433,0.5236 l -0.0886,0.33867 -1.117901,0.0236 c -1.051458,0.0222 -1.1179,0.014 -1.1179,-0.1378 z m 5.352,-3.19352 c 0.08068,-0.17706 0.07255,-0.26732 -0.04384,-0.48684 -0.07858,-0.14821 -0.167847,-0.40282 -0.198367,-0.5658 -0.03052,-0.16299 -0.106858,-0.37149 -0.169642,-0.46333 -0.06278,-0.0919 -0.114153,-0.25623 -0.114153,-0.36527 0,-0.28872 -0.408702,-1.13772 -0.528474,-1.0978 -0.05584,0.0186 -0.131994,0.18047 -0.169226,0.35966 -0.03723,0.1792 -0.101621,0.36689 -0.143087,0.41711 -0.04147,0.0502 -0.102129,0.24369 -0.134806,0.42996 -0.03268,0.18627 -0.112286,0.42305 -0.17691,0.52619 -0.06462,0.10314 -0.117731,0.27459 -0.118018,0.381 -2.87e-4,0.10642 -0.05744,0.30261 -0.127,0.436 -0.275835,0.52888 -0.106568,0.63328 1.039503,0.64112 0.762915,0.005 0.787766,-7.5e-4 0.884019,-0.21199 z"
         id="path1" /></g></g></svg>
