<?xml version="1.0" encoding="UTF-8" standalone="no"?>
<!-- Created with Inkscape (http://www.inkscape.org/) -->

<svg
   width="249.98248mm"
   height="39.846577mm"
   viewBox="0 0 249.98248 39.846577"
   version="1.1"
   id="svg1"
   xml:space="preserve"
   inkscape:version="1.4.2 (f4327f4, 2025-05-13)"
   sodipodi:docname="fundacen_logo.svg"
   xmlns:inkscape="http://www.inkscape.org/namespaces/inkscape"
   xmlns:sodipodi="http://sodipodi.sourceforge.net/DTD/sodipodi-0.dtd"
   xmlns="http://www.w3.org/2000/svg"
   xmlns:svg="http://www.w3.org/2000/svg"><sodipodi:namedview
     id="namedview1"
     pagecolor="#ffffff"
     bordercolor="#000000"
     borderopacity="0.25"
     inkscape:showpageshadow="2"
     inkscape:pageopacity="0.0"
     inkscape:pagecheckerboard="0"
     inkscape:deskcolor="#d1d1d1"
     inkscape:document-units="mm"
     inkscape:zoom="0.68862935"
     inkscape:cx="512.61248"
     inkscape:cy="-222.90656"
     inkscape:window-width="2400"
     inkscape:window-height="1261"
     inkscape:window-x="-9"
     inkscape:window-y="-9"
     inkscape:window-maximized="1"
     inkscape:current-layer="layer1" /><defs
     id="defs1" /><g
     inkscape:label="Layer 1"
     inkscape:groupmode="layer"
     id="layer1"
     transform="translate(30.752029,-207.28884)"><g
       id="g5"
       transform="translate(-2.6895213,61.090556)"><path
         style="fill:#5fc6de"
         d="m 127.59859,185.40777 -0.79375,-0.63581 0.0525,-3.13298 c 0.0479,-2.85796 0.10277,-3.17363 0.62463,-3.59621 0.77677,-0.62899 2.23294,-0.59583 2.8947,0.0659 0.46454,0.46454 0.52916,0.88194 0.52916,3.41794 0,1.58883 -0.0739,3.08151 -0.16435,3.31708 -0.17394,0.45328 -1.42621,1.20338 -2.00532,1.20116 -0.18913,-7.2e-4 -0.70105,-0.28742 -1.13762,-0.63711 z m 1.45521,-3.7272 c 0,-1.0914 -0.0926,-1.98437 -0.20579,-1.98437 -0.18267,0 -0.20695,0.84347 -0.0933,3.24114 0.019,0.40019 0.094,0.72761 0.16678,0.72761 0.0728,0 0.13229,-0.89297 0.13229,-1.98438 z m 11.19748,4.05111 c -0.94374,-0.45626 -1.1667,-1.45292 -1.08605,-4.85495 l 0.075,-3.16491 0.70981,-0.082 c 1.01209,-0.11693 1.20937,0.46398 1.17334,3.45504 -0.0171,1.41861 0.0543,2.57947 0.15871,2.57969 0.10437,2.2e-4 0.22343,-1.33906 0.26458,-2.97616 l 0.0748,-2.97657 h 0.79375 0.79375 l 0.0751,3.30729 c 0.0808,3.55935 -0.0876,4.23785 -1.17495,4.73328 -0.7712,0.35138 -1.09572,0.34776 -1.85788,-0.0207 z m 16.74496,-0.0285 c -0.38288,-0.27997 -0.43134,-0.82852 -0.36728,-4.15694 l 0.0738,-3.83441 1.24939,-0.0803 1.24938,-0.0803 0.30771,1.222 c 0.3396,1.34868 0.68168,1.29174 0.81268,-0.13528 0.0828,-0.90214 0.11722,-0.92811 1.33319,-1.00633 1.56214,-0.10049 1.5768,-0.055 1.47398,4.57821 l -0.0763,3.43958 h -0.79115 c -0.66723,0 -0.81613,-0.12433 -0.95063,-0.79375 -0.1633,-0.81283 -0.2587,-0.72466 -0.66335,0.61304 -0.0621,0.20522 -0.39607,0.31397 -0.81257,0.26458 -0.53512,-0.0635 -0.78807,-0.30916 -1.03971,-1.00991 l -0.33254,-0.92604 -0.0201,0.85059 c -0.0242,1.02086 -0.75969,1.55751 -1.44644,1.05534 z m 11.95504,-0.0668 c -0.76118,-0.41318 -1.12048,-1.50764 -0.95919,-2.92178 0.0752,-0.65899 0.20165,-0.76939 0.8815,-0.76939 0.70212,0 0.80332,0.0993 0.87666,0.85989 0.0456,0.47294 0.19443,0.8599 0.33073,0.8599 0.13967,0 0.24782,-1.32784 0.24782,-3.04271 v -3.04271 h 0.78871 c 1.02631,0 1.13645,0.4571 1.02114,4.23778 -0.0872,2.85786 -0.11394,2.97339 -0.83242,3.59088 -0.84897,0.72964 -1.3429,0.77749 -2.35495,0.22814 z m 5.21398,0.10435 c -1.06263,-0.58122 -1.19063,-1.02312 -1.19063,-4.11068 0,-2.63936 0.0624,-3.05453 0.52917,-3.5213 0.67834,-0.67834 2.12374,-0.69005 2.94725,-0.0239 0.57675,0.46655 0.63148,0.72997 0.7141,3.4366 l 0.0895,2.93133 -0.79673,0.79673 c -0.8412,0.84121 -1.42432,0.96614 -2.29264,0.49121 z m 0.85553,-5.0453 c -0.0559,-0.62231 -0.10241,-0.17897 -0.10337,0.98519 -9.6e-4,1.16417 0.0448,1.67333 0.10162,1.13148 0.0568,-0.54186 0.0576,-1.49436 0.002,-2.11667 z m 3.14454,5.00957 c -0.38592,-0.2822 -0.43392,-0.82218 -0.36971,-4.15872 l 0.0738,-3.83441 1.50853,-0.079 c 2.39294,-0.12527 2.54246,0.14307 2.49714,4.48151 l -0.0369,3.53495 h -1.32292 c -0.7276,0 -1.4542,0.0855 -1.61467,0.18997 -0.16046,0.10447 -0.49133,0.044 -0.73526,-0.13434 z m 21.90612,-0.27334 c -0.7694,-0.66229 -0.77077,-0.66896 -0.77077,-3.75221 0,-2.92692 0.0327,-3.11522 0.62462,-3.5943 0.82751,-0.66978 2.16523,-0.64818 2.91143,0.047 0.46581,0.43397 0.57591,0.78892 0.51291,1.65365 -0.075,1.02919 -0.13203,1.10106 -0.87396,1.10106 -0.62171,0 -0.81208,-0.12903 -0.8783,-0.59531 -0.0465,-0.32742 -0.19533,-0.59531 -0.33073,-0.59531 -0.1354,0 -0.24618,0.89297 -0.24618,1.98437 0,1.14653 0.11171,1.98438 0.26458,1.98438 0.14552,0 0.26458,-0.29539 0.26458,-0.65642 0,-0.47545 0.17822,-0.70115 0.64642,-0.81866 0.94674,-0.23761 1.20567,0.0478 1.20567,1.32909 0,2.14693 -1.83426,3.20039 -3.33027,1.91265 z m 8.21797,0.17283 c -0.21706,-0.21706 -0.33575,-0.48995 -0.26376,-0.60643 0.072,-0.11648 0.25397,-1.62493 0.40441,-3.35211 0.37214,-4.27257 0.29294,-4.10866 1.93894,-4.01329 l 1.36708,0.0792 0.18628,1.32292 c 0.34391,2.44233 0.65304,6.08252 0.54315,6.39569 -0.21783,0.62074 -0.90215,0.5994 -1.5499,-0.0484 -0.78838,-0.78838 -0.80304,-0.79096 -0.9655,-0.1697 -0.17145,0.6556 -1.16306,0.88971 -1.6607,0.39207 z m 5.64102,0.0319 c -0.48612,-0.26388 -0.77159,-0.68465 -0.88897,-1.31034 -0.22961,-1.22397 -0.0255,-1.66371 0.82005,-1.76644 l 0.70148,-0.0852 -0.69269,-0.79375 c -1.57685,-1.80691 -1.02834,-4.0698 0.99203,-4.09262 1.01982,-0.0115 1.74454,0.42316 2.05148,1.23048 0.32122,0.84486 -0.0813,1.40693 -1.00758,1.40693 -0.65395,0 -0.65129,0.009 0.29698,1.0591 0.70984,0.78571 0.95683,1.29473 0.95683,1.97193 0,1.22654 -0.451,2.14009 -1.23225,2.49605 -0.82615,0.37642 -1.12162,0.35924 -1.99736,-0.11611 z m 1.37753,-2.10367 c 0,-0.21828 -0.11907,-0.39688 -0.26459,-0.39688 -0.14552,0 -0.26458,0.1786 -0.26458,0.39688 0,0.21828 0.11906,0.39687 0.26458,0.39687 0.14552,0 0.26459,-0.17859 0.26459,-0.39687 z m 3.46324,2.27045 c -0.27483,-0.17491 -0.35354,-0.71473 -0.29861,-2.04774 0.041,-0.99562 0.0899,-2.69936 0.10863,-3.7861 l 0.034,-1.97589 1.14638,-0.22683 c 1.70781,-0.33791 1.89633,-0.17847 1.89633,1.60384 0,0.84859 -0.12944,1.67233 -0.28764,1.83053 -0.20713,0.20713 -0.20713,0.33739 0,0.46541 0.16543,0.10224 0.28764,1.01423 0.28764,2.14652 v 1.96876 h -0.9044 c -0.49743,0 -1.06297,0.0583 -1.25678,0.12952 -0.1938,0.0712 -0.52031,0.0226 -0.72558,-0.10802 z m -96.59658,-4.10577 v -4.11781 h 1.45521 c 1.09618,0 1.58411,0.1289 1.97765,0.52244 1.41909,1.41909 0.86323,4.06046 -0.9721,4.61923 -0.48693,0.14825 -0.59494,0.4018 -0.66146,1.55265 -0.0774,1.33936 -0.10208,1.37765 -0.9394,1.45838 l -0.8599,0.0829 z m 2.03283,-1.78617 c -0.0845,-0.21106 -0.14716,-0.14837 -0.15985,0.15985 -0.0115,0.27892 0.051,0.43519 0.13896,0.34727 0.0879,-0.0879 0.0973,-0.31612 0.0209,-0.50712 z m 7.6022,5.51094 c -0.0691,-0.18009 -0.0924,-1.98858 -0.0517,-4.01886 l 0.074,-3.69143 1.50853,-0.079 c 2.3983,-0.12555 2.55128,0.1488 2.50108,4.48546 l -0.0409,3.531 -1.93269,0.0501 c -1.3311,0.0345 -1.9718,-0.0518 -2.05833,-0.27733 z m 12.44156,0.016 c -0.0725,-0.1889 -0.0985,-2.00461 -0.0578,-4.03489 0.0727,-3.6278 0.0845,-3.69292 0.68384,-3.77788 0.33543,-0.0476 0.78696,0.0605 1.0034,0.24014 0.29807,0.24737 0.46782,0.2523 0.69981,0.0203 0.16846,-0.16846 0.58013,-0.30629 0.91483,-0.30629 h 0.60854 v 4.10104 4.10104 h -0.7717 c -0.42444,0 -0.82627,-0.14882 -0.89297,-0.33072 -0.097,-0.26459 -0.19138,-0.26459 -0.47184,0 -0.45899,0.433 -1.54812,0.42492 -1.71607,-0.0127 z m 4.89007,0.0127 c -0.0684,-1.08558 0.11328,-3.79683 0.37678,-5.6224 l 0.30552,-2.11667 1.2138,-0.0789 c 0.7648,-0.0497 1.31297,0.0482 1.4819,0.26458 0.3298,0.42252 1.00645,7.19468 0.75889,7.59524 -0.31598,0.51126 -1.50672,0.33869 -1.65813,-0.24031 -0.0761,-0.29104 -0.2892,-0.52917 -0.47354,-0.52917 -0.18434,0 -0.39743,0.23813 -0.47354,0.52917 -0.15516,0.59335 -1.49584,0.76704 -1.53168,0.19844 z m 14.8967,-3.69137 0.0731,-4.0477 1.43017,-0.0814 c 1.48304,-0.0844 1.865,0.13733 1.87307,1.08735 0.003,0.29555 -0.3028,0.58376 -0.8032,0.7582 -0.93036,0.32432 -0.97595,1.09855 -0.0723,1.22789 0.31363,0.0449 0.63941,0.26187 0.72395,0.48218 0.22771,0.5934 -0.31407,1.42057 -0.93043,1.42057 -0.8114,0 -0.56339,1.1234 0.29229,1.324 0.52134,0.12222 0.66146,0.32069 0.66146,0.93689 0,0.77461 -0.0153,0.78255 -1.6606,0.86077 l -1.66061,0.079 z m 21.29506,3.8569 c -0.22833,-0.22833 -0.25242,-7.03089 -0.027,-7.61837 0.12122,-0.31591 0.54164,-0.41852 1.71475,-0.41852 1.44889,0 1.56572,0.0461 1.72503,0.68083 0.18882,0.75232 -0.0267,1.07185 -0.81922,1.21476 -0.79174,0.14276 -0.82444,0.96711 -0.05,1.26154 0.35913,0.13654 0.70889,0.40478 0.77725,0.59609 0.19836,0.55511 -0.30395,1.27386 -0.89025,1.27386 -0.8114,0 -0.56339,1.1234 0.29229,1.324 0.52134,0.12222 0.66146,0.32069 0.66146,0.93689 0,0.77123 -0.0217,0.78287 -1.59836,0.85916 -0.87909,0.0425 -1.68276,-0.007 -1.78593,-0.11024 z m 4.16833,-0.16553 c -0.069,-0.18191 0.0376,-1.10693 0.23689,-2.05563 0.31561,-1.50271 0.28192,-3.16555 -0.0991,-4.88969 -0.20023,-0.9061 0.82519,-1.32213 1.52756,-0.61975 0.232,0.23199 0.40174,0.22706 0.69982,-0.0203 0.21643,-0.17963 0.66797,-0.28769 1.0034,-0.24014 0.51931,0.0736 0.60031,0.22396 0.54544,1.01249 -0.16428,2.36117 -0.14664,4.22497 0.0532,5.6224 l 0.21756,1.52135 h -0.81294 c -0.59185,0 -0.8606,-0.15016 -0.98819,-0.55216 l -0.17525,-0.55216 -0.38675,0.55216 c -0.4237,0.60492 -1.62108,0.75047 -1.82166,0.22144 z m 4.84974,0.0341 c -0.0909,-0.27262 -0.009,-1.21947 0.52602,-6.05341 l 0.1902,-1.71979 1.35589,-0.0788 c 1.0646,-0.0619 1.3919,0.015 1.52349,0.35793 0.0922,0.24022 0.29295,1.88036 0.44615,3.64476 0.15321,1.7644 0.32981,3.25925 0.39245,3.32189 0.0626,0.0626 -0.0187,0.27367 -0.18079,0.46896 -0.45283,0.54562 -1.49071,0.4384 -1.6851,-0.17409 -0.0924,-0.29104 -0.27097,-0.52917 -0.39688,-0.52917 -0.12591,0 -0.3045,0.23813 -0.39687,0.52917 -0.1845,0.58131 -1.59663,0.76638 -1.77456,0.23257 z m 10.56244,0.13275 c -0.10391,-0.10392 -0.18893,-1.53239 -0.18893,-3.1744 0,-2.45412 -0.0749,-3.02737 -0.42081,-3.22096 -0.25244,-0.14127 -0.38477,-0.49058 -0.33073,-0.87304 0.0826,-0.58478 0.22516,-0.64402 1.72207,-0.71576 1.46518,-0.0702 1.65016,-0.0209 1.80979,0.48199 0.1113,0.35069 0.0239,0.73025 -0.23374,1.01493 -0.31103,0.34368 -0.42994,1.19528 -0.48687,3.48677 l -0.0753,3.03202 -0.80326,0.0787 c -0.44179,0.0433 -0.88828,-0.006 -0.99219,-0.11024 z M -27.987306,175.6613 c -0.06962,-0.1819 -0.09565,-6.81963 -0.05784,-14.75052 l 0.06874,-14.41979 h 9.921875 9.9218751 l 0.073612,3.63802 0.073612,3.63802 h -5.8283001 -5.8283 v 2.24896 2.24896 h 4.7625 4.7625 v 3.30729 c 0,1.81901 -0.02977,3.3299 -0.06615,3.35754 -0.03638,0.0276 -2.149739,0.11694 -4.696354,0.19844 l -4.630208,0.14819 -0.07215,5.00721 c -0.04535,3.14694 -0.180256,5.13747 -0.363126,5.35781 -0.40556,0.48867 -7.855812,0.50708 -8.042287,0.0199 z m 30.5542237,-0.29039 c -3.7239322,-1.44149 -6.3206893,-4.27464 -7.5547005,-8.24242 -0.443127,-1.42481 -0.4939969,-2.56363 -0.4963821,-11.1125 l -0.00266,-9.525 h 3.96875 3.9687499 l 0.1502631,8.59896 c 0.1236621,7.07669 0.2296521,8.84078 0.598716,9.96496 1.4122736,4.30185 6.4140178,4.71709 8.4097359,0.69817 0.62043,-1.2494 0.63224,-1.41478 0.713754,-9.99473 0.0535,-5.63138 0.182236,-8.84402 0.363126,-9.06198 0.324647,-0.39118 7.247992,-0.48391 7.845651,-0.10509 0.28853,0.18289 0.332811,1.95955 0.238947,9.5871 -0.10411,8.46009 -0.166092,9.51564 -0.643004,10.95011 -1.50371,4.52291 -4.121257,7.13843 -8.567849,8.56122 -0.521866,0.16699 -2.4169552,0.29077 -4.2333332,0.27652 -2.6917775,-0.0211 -3.5554801,-0.12915 -4.7597664,-0.59532 z M 25.1322,175.68126 c -0.464111,-0.46411 -0.470627,-28.54117 -0.0067,-29.00506 0.208102,-0.20811 1.311086,-0.3175 3.201138,-0.3175 3.453522,0 2.418464,-0.87486 9.173863,7.75398 2.965849,3.78836 4.961586,6.12246 5.07626,5.93691 0.103932,-0.16816 0.200269,-3.22582 0.214081,-6.7948 0.01381,-3.56898 0.120093,-6.58403 0.236177,-6.70011 0.116085,-0.11609 1.928123,-0.17791 4.026751,-0.13738 l 3.815688,0.0737 v 14.68437 14.68438 l -3.182774,0.0738 -3.182774,0.0738 -5.416184,-6.75398 c -2.978902,-3.71469 -5.503437,-6.75424 -5.610079,-6.75455 -0.106642,-3.1e-4 -0.225704,3.00576 -0.264583,6.68016 l -0.07069,6.68073 -3.842956,0.0729 c -2.764897,0.0524 -3.933912,-0.0181 -4.167188,-0.25136 z m 30.698164,0.13554 c -0.258946,-0.10448 -0.330729,-3.28601 -0.330729,-14.65844 v -14.525 l 0.67157,-0.16855 c 0.369363,-0.0927 3.732879,-0.11054 7.474479,-0.0396 7.395895,0.14015 8.337475,0.3029 11.285746,1.95072 2.734259,1.52821 5.299263,4.98341 6.260948,8.43385 0.487189,1.74799 0.48484,6.99606 -0.0039,8.73125 -1.072442,3.80747 -3.605279,7.01642 -6.765288,8.57122 -1.543784,0.75957 -2.237855,1.0042 -4.534452,1.59817 -1.079518,0.27919 -13.39907,0.37245 -14.058366,0.10642 z m 13.882578,-8.0537 c 2.417059,-1.34361 3.048941,-2.57999 3.198804,-6.25898 0.102722,-2.52171 0.06061,-2.81604 -0.594505,-4.15505 -0.387782,-0.79259 -1.06408,-1.74318 -1.502885,-2.11241 -1.076839,-0.9061 -3.299834,-1.51464 -5.177029,-1.41721 l -1.538733,0.0799 -0.0704,7.2099 -0.0704,7.20989 h 2.377455 c 1.922023,0 2.569062,-0.10651 3.37769,-0.55601 z m 11.545439,7.8281 c -0.188351,-0.49083 -0.30937,-0.0888 2.149013,-7.13979 3.051179,-8.75126 4.547277,-13.08408 6.009028,-17.4026 0.727695,-2.14987 1.498865,-4.08463 1.713713,-4.29948 0.546996,-0.547 7.018818,-0.56943 7.469913,-0.0259 0.232823,0.28053 3.590842,9.71166 5.051502,14.18734 0.11873,0.3638 1.2455,3.63802 2.50395,7.27604 1.25845,3.63802 2.29604,6.67412 2.30577,6.74688 0.13979,1.04531 0.0906,1.05833 -3.9981,1.05833 -2.87196,0 -4.01168,-0.0905 -4.16719,-0.33073 -0.11773,-0.1819 -0.577306,-1.46182 -1.021281,-2.84427 l -0.807228,-2.51354 -3.613782,-0.0735 -3.613782,-0.0736 -0.708227,2.32251 c -1.18453,3.88444 -0.636513,3.51312 -5.184902,3.51312 -3.270582,0 -3.960542,-0.0676 -4.088397,-0.40083 z m 15.681562,-11.70386 c -0.07421,-0.25466 -0.504569,-1.77271 -0.956346,-3.37343 -1.107173,-3.92293 -1.065505,-3.8303 -1.368618,-3.04271 -0.61148,1.58882 -2.001472,6.59859 -1.867883,6.73218 0.08084,0.0808 1.087663,0.14698 2.237382,0.14698 1.865871,0 2.075906,-0.0497 1.955465,-0.46302 z m 21.001357,11.51165 c -5.8318,-2.16513 -10.08067,-8.3285 -10.04474,-14.57077 0.0255,-4.42925 2.28009,-8.92049 5.75406,-11.46235 2.68139,-1.96195 4.01644,-2.51758 7.26724,-3.02457 3.29791,-0.51432 7.57844,0.39447 10.12032,2.14863 1.53727,1.06088 3.83645,3.61557 3.83645,4.26279 0,0.20663 -3.12022,2.58849 -4.99249,3.81109 l -1.15604,0.75489 -0.50815,-0.62754 c -0.27948,-0.34515 -0.5927,-0.7633 -0.69605,-0.92922 -0.38292,-0.6148 -1.81632,-1.40348 -3.17432,-1.74658 -1.11117,-0.28072 -1.70274,-0.2897 -2.8758,-0.0436 -2.60236,0.54585 -3.99058,2.0624 -4.76666,5.20732 -0.36631,1.48439 -0.38676,2.03582 -0.12763,3.44217 0.35942,1.95062 0.7263,2.7357 1.86137,3.98305 1.27011,1.39576 2.28337,1.81565 4.403,1.82461 2.30607,0.01 3.43439,-0.48803 4.84377,-2.13686 l 1.04664,-1.22447 0.79692,0.56746 c 0.43831,0.3121 0.87615,0.56746 0.97299,0.56746 0.0968,0 0.69522,0.35718 1.32975,0.79375 0.63452,0.43656 1.25578,0.79375 1.38058,0.79375 0.1248,0 0.63729,0.3426 1.13886,0.76133 0.85875,0.71692 0.89076,0.80095 0.54867,1.44015 -0.85181,1.59163 -3.30633,3.68836 -5.44936,4.65503 -2.50475,1.12983 -3.63744,1.34644 -6.89796,1.31918 -2.47876,-0.0207 -3.46856,-0.14235 -4.61142,-0.56665 z m 19.89667,0.27554 c -0.23915,-0.23914 -0.3175,-3.8618 -0.3175,-14.67933 v -14.36184 l 0.59531,-0.14492 c 0.32742,-0.0797 4.94109,-0.11175 10.2526,-0.0712 l 9.6573,0.0737 0.0736,3.63303 0.0736,3.63304 -6.02671,0.0711 -6.0267,0.0711 v 1.71979 1.7198 l 4.96411,0.0164 c 3.00261,0.01 5.07087,0.12316 5.2343,0.28659 0.16252,0.16252 0.24033,1.52662 0.19526,3.42318 l -0.0749,3.15299 -5.22552,0.0717 -5.22553,0.0717 v 1.97878 1.97878 h 6.0325 c 4.33917,0 6.12163,0.0891 6.35,0.3175 0.2136,0.2136 0.3175,1.41658 0.3175,3.67586 0,2.81831 -0.0673,3.38419 -0.41851,3.51896 -0.23018,0.0883 -4.84981,0.1606 -10.26583,0.1606 -7.30625,0 -9.92925,-0.0819 -10.16482,-0.3175 z m 24.14556,-0.0132 c -0.0696,-0.1819 -0.0957,-6.81963 -0.0579,-14.75052 l 0.0687,-14.41979 2.98444,-0.0749 c 1.64144,-0.0412 3.1493,0.0183 3.35079,0.1323 0.2015,0.11394 1.10162,1.15967 2.00028,2.32384 0.89866,1.16417 1.91588,2.47385 2.2605,2.91042 0.34462,0.43656 2.03056,2.57483 3.74653,4.75171 l 3.11996,3.95796 0.13229,-7.00067 0.13229,-7.00067 3.80037,-0.0736 c 2.57701,-0.0499 3.91846,0.0244 4.16719,0.23084 0.30445,0.25267 0.36613,2.71693 0.36276,14.49338 -0.002,7.80393 -0.10099,14.34174 -0.21948,14.52848 -0.16012,0.25235 -1.02098,0.32028 -3.3531,0.26458 l -3.13767,-0.0749 -3.52436,-4.36563 c -1.9384,-2.40109 -3.67213,-4.54461 -3.85274,-4.76337 -0.18061,-0.21876 -0.74344,-0.93314 -1.25072,-1.5875 -0.50728,-0.65436 -1.25087,-1.54694 -1.65242,-1.9835 l -0.73009,-0.79375 -0.001,6.49552 c -8.9e-4,4.69787 -0.0891,6.58339 -0.31873,6.81302 -0.4574,0.4574 -7.85231,0.44522 -8.02777,-0.0132 z m 35.2904,0.0408 c -0.24626,-0.15163 -0.3949,-1.08997 -0.4868,-3.07302 l -0.13229,-2.85474 -2.11666,-0.13229 -2.11667,-0.13229 -0.13967,-10.98021 c -0.0768,-6.03911 -0.0429,-11.18857 0.0755,-11.44323 0.2,-0.43045 1.01479,-0.46302 11.5829,-0.46302 h 11.36778 v 2.64583 2.64584 h 3.14669 c 2.6253,0 3.1733,0.0693 3.30729,0.41851 0.26032,0.67839 0.17644,22.69468 -0.0881,23.11269 -0.20257,0.32013 -2.12007,0.38759 -12.14301,0.42718 -6.54635,0.0259 -12.06199,-0.0512 -12.25696,-0.17125 z m 5.80694,-8.96096 c 0.0496,-1.80624 0.18755,-2.83949 0.39687,-2.97251 0.17647,-0.11214 1.59675,-0.20572 3.15617,-0.20794 l 2.83532,-0.004 0.0751,-2.84427 0.0751,-2.84427 2.84427,-0.0751 2.84427,-0.0751 v -2.77279 -2.77279 l -8.66511,0.0698 -8.6651,0.0698 -0.07,8.33194 c -0.0385,4.58257 -0.0107,8.48636 0.0617,8.6751 0.0978,0.25487 0.7624,0.32356 2.58355,0.26701 l 2.45186,-0.0761 z"
         id="path8" /><path
         style="fill:#a2a4a5"
         d="m 169.73349,185.87097 c 0.1819,-0.0734 0.47956,-0.0734 0.66146,0 0.1819,0.0734 0.0331,0.13345 -0.33073,0.13345 -0.3638,0 -0.51263,-0.0601 -0.33073,-0.13345 z m 8.46667,-0.11055 c -0.31841,-0.18545 -0.45479,-0.57546 -0.43665,-1.24872 0.0237,-0.87851 0.0481,-0.91112 0.23821,-0.31759 0.12901,0.40286 0.20747,-0.63156 0.20066,-2.64583 -0.007,-2.17171 -0.0762,-2.9439 -0.20066,-2.24896 l -0.18949,1.05834 -0.0376,-1.24116 c -0.0386,-1.27588 0.27247,-1.77274 0.83394,-1.33201 0.17553,0.13778 0.78661,0.26426 1.35796,0.28106 0.57135,0.0168 1.12598,0.17155 1.23249,0.34391 0.10652,0.17235 0.17483,1.81229 0.15181,3.64432 -0.0348,2.76586 -0.1092,3.33096 -0.43875,3.33096 -0.29389,0 -0.4312,-0.41132 -0.52916,-1.58518 -0.10311,-1.23552 -0.23443,-1.60455 -0.59531,-1.67304 -0.40001,-0.0759 -0.46303,0.13196 -0.46303,1.52733 0,1.1889 -0.10434,1.65525 -0.39535,1.76692 -0.21745,0.0834 -0.32948,0.2583 -0.24897,0.38857 0.18387,0.29751 0.0999,0.28896 -0.48015,-0.0489 z m 2.18281,-5.79964 c 0,-0.61736 -0.11759,-0.79375 -0.52917,-0.79375 -0.41157,0 -0.52917,0.17639 -0.52917,0.79375 0,0.61736 0.1176,0.79375 0.52917,0.79375 0.41158,0 0.52917,-0.17639 0.52917,-0.79375 z m 27.98199,5.71919 c -0.23889,-0.23888 -0.32172,-0.72186 -0.23822,-1.38906 0.11643,-0.93037 0.14575,-0.96304 0.32427,-0.36138 0.10794,0.3638 0.12809,-0.39911 0.0448,-1.69537 -0.10052,-1.56413 -0.0611,-2.30099 0.11713,-2.19081 0.16471,0.10179 0.22065,-0.0849 0.14462,-0.48256 -0.15755,-0.82422 0.12607,-1.98126 0.48567,-1.98126 0.15133,0 0.20157,0.11906 0.11163,0.26458 -0.0996,0.16119 0.29459,0.26459 1.00868,0.26459 h 1.1722 l 0.22931,2.97656 c 0.32715,4.24657 0.32375,4.29659 -0.29352,4.31686 -0.73234,0.0241 -1.04667,-0.17618 -0.65581,-0.41775 0.43923,-0.27145 0.086,-0.79026 -0.53802,-0.79026 -0.31264,0 -0.66643,0.34833 -0.94057,0.92605 -0.50236,1.05863 -0.48394,1.04803 -0.97215,0.55981 z m 2.40055,-3.20169 c 0.11414,-0.97421 -0.17863,-2.5175 -0.47758,-2.5175 -0.29738,0 -0.65381,2.77068 -0.40766,3.16895 0.30827,0.49879 0.7922,0.14267 0.88524,-0.65145 z m -1.89139,-0.97961 c -0.0845,-0.21106 -0.14715,-0.14837 -0.15985,0.15985 -0.0115,0.27892 0.0511,0.43519 0.13897,0.34727 0.0879,-0.0879 0.0973,-0.31612 0.0209,-0.50712 z m -86.66911,0.1819 c 0.0323,-4.00393 0.0465,-4.1006 0.59668,-4.08244 0.54944,0.0181 0.5503,0.0243 0.0344,0.24598 -0.38123,0.16383 -0.10646,0.23259 0.98288,0.24599 1.74174,0.0214 2.05983,0.34847 2.05983,2.11787 0,1.18241 -0.6953,2.13406 -1.55919,2.13406 -0.61579,0 -0.82206,0.49625 -0.82206,1.97771 0,1.08625 -0.27785,1.46187 -1.08135,1.46187 -0.14028,0 -0.23021,-1.74627 -0.21119,-4.10104 z m 2.33879,-0.77918 c 0.43993,-0.53008 0.24123,-1.5782 -0.31944,-1.68506 -0.56634,-0.10795 -0.84114,0.51747 -0.61801,1.4065 0.18808,0.74936 0.47577,0.83485 0.93745,0.27856 z m 7.33222,4.70384 c -0.097,-0.097 -0.16802,-0.48397 -0.15779,-0.8599 0.0169,-0.6193 0.04,-0.6338 0.24599,-0.15434 0.14483,0.33705 0.2215,-0.47943 0.21115,-2.24896 -0.011,-1.88754 -0.0787,-2.48126 -0.21115,-1.85208 -0.16108,0.76523 -0.20097,0.61446 -0.22976,-0.8682 -0.0276,-1.42281 0.0529,-1.82789 0.38875,-1.95679 0.23297,-0.0894 0.50282,-0.0343 0.59966,0.12237 0.0968,0.1567 0.70991,0.32287 1.36236,0.36928 l 1.18628,0.0844 0.0546,3.41707 c 0.03,1.87939 0.10413,3.54627 0.16469,3.70417 0.0606,0.1579 -0.16808,0.304 -0.50808,0.32466 -0.34,0.0207 -0.60836,-0.0389 -0.59637,-0.1323 0.012,-0.0934 0.008,-0.91399 -0.01,-1.8235 -0.0278,-1.46681 -0.0911,-1.65364 -0.5605,-1.65364 -0.46834,0 -0.52917,0.17639 -0.52917,1.53458 0,1.47593 -0.29889,2.16958 -0.93486,2.16958 -0.16492,0 -0.37923,-0.0794 -0.47625,-0.17638 z m 2.56513,-5.24757 c 0.23096,-0.60188 -0.092,-1.19063 -0.65316,-1.19063 -0.38012,0 -0.50086,0.19134 -0.50086,0.79375 0,0.60241 0.12074,0.79375 0.50086,0.79375 0.27548,0 0.5694,-0.17859 0.65316,-0.39687 z m -2.15796,-1.70582 c 0.0629,-0.42888 0.0169,-0.71951 -0.10226,-0.64585 -0.21214,0.13111 -0.31606,1.42562 -0.11445,1.42562 0.0562,0 0.15376,-0.35089 0.21671,-0.77977 z m 14.30794,6.22828 c -0.0957,-1.36202 -0.3297,-2.00892 -0.72683,-2.00892 -0.26245,0 -0.40189,0.38265 -0.45798,1.25677 -0.0698,1.08787 -0.15978,1.26076 -0.66948,1.28648 -0.58325,0.0294 -0.58872,-0.006 -0.57701,-3.76601 0.008,-2.43176 0.115,-3.85949 0.29898,-3.97319 0.18545,-0.11461 0.21208,-0.0459 0.0752,0.19413 -0.16642,0.29174 -0.13906,0.30418 0.12732,0.0579 0.47732,-0.44133 1.0066,0.1432 1.26774,1.40011 0.33501,1.61241 0.90827,1.48677 0.81983,-0.17967 -0.0524,-0.98794 0.0301,-1.43525 0.28025,-1.51863 0.21223,-0.0707 0.28041,0.002 0.16984,0.18071 -0.10609,0.17167 -0.0149,0.29891 0.21416,0.29891 0.33308,0 0.41206,0.62208 0.47864,3.77031 l 0.0797,3.77031 -0.66146,0.0246 c -0.55673,0.0207 -0.67056,-0.10501 -0.71892,-0.79375 z m 2.54172,0.57077 c -0.0452,-0.51082 -0.0122,-1.19436 0.18228,-3.77032 0.12185,-1.61403 0.24866,-2.21076 0.39358,-1.85208 0.129,0.31926 0.15559,0.0445 0.067,-0.69272 -0.10081,-0.83913 -0.0413,-1.28706 0.18985,-1.42994 0.21971,-0.13579 0.27107,-0.10195 0.14786,0.0974 -0.12919,0.20904 0.10846,0.30547 0.75287,0.30547 0.51791,0 0.94166,-0.11906 0.94166,-0.26459 0,-0.14552 0.11906,-0.26458 0.26458,-0.26458 0.14552,0 0.24128,0.0893 0.2128,0.19844 -0.0438,0.16778 0.42823,5.05074 0.69766,7.21722 0.0712,0.57296 -0.0164,0.66424 -0.61208,0.63715 -0.54782,-0.0249 -0.69525,-0.16568 -0.69525,-0.66385 0,-0.88438 -0.85079,-1.00677 -1.16959,-0.16825 -0.1348,0.35454 -0.44254,0.72039 -0.68387,0.813 -0.59992,0.23021 -0.65577,0.21705 -0.68937,-0.16235 z m 0.47625,-3.3073 c -0.0666,-0.25466 -0.121,-0.0463 -0.121,0.46302 0,0.50933 0.0545,0.71769 0.121,0.46303 0.0665,-0.25467 0.0665,-0.67138 0,-0.92605 z m 2.14844,0.54696 c 0.11675,-0.81595 -0.45505,-2.77564 -0.75567,-2.58985 -0.13873,0.0857 -0.25224,0.87197 -0.25224,1.74718 0,1.37274 0.0636,1.57917 0.46303,1.50304 0.25466,-0.0485 0.49985,-0.3457 0.54488,-0.66037 z m 4.92122,2.72706 c -0.0682,-0.17762 -0.0906,-1.97432 -0.05,-3.99267 0.0574,-2.8477 0.15629,-3.69711 0.44152,-3.7919 0.20215,-0.0672 0.29505,-0.005 0.20644,0.13853 -0.096,0.15539 0.10344,0.21011 0.49386,0.13548 0.9977,-0.19072 1.44568,0.35807 1.44568,1.77098 0,1.22902 0.5642,2.45258 0.95206,2.06472 0.11087,-0.11087 0.21133,-1.05374 0.22325,-2.09526 0.0163,-1.42793 0.1185,-1.9257 0.41537,-2.02385 0.33935,-0.11219 0.34283,-0.0685 0.0253,0.31613 -0.20263,0.24547 -0.29193,0.5228 -0.19843,0.61629 0.0935,0.0935 0.16999,0.0311 0.16999,-0.13868 0,-0.17639 0.39688,-0.30868 0.92604,-0.30868 h 0.92604 v 3.67331 c 0,3.41428 -0.0362,3.68278 -0.51384,3.80768 -0.59811,0.15641 -0.81066,0.003 -0.80502,-0.57978 0.004,-0.36709 0.0358,-0.36982 0.26053,-0.022 0.17876,0.27662 0.25771,-0.17964 0.26053,-1.50573 0.002,-1.11486 -0.11774,-1.97789 -0.29011,-2.08442 -0.44193,-0.27313 -0.67583,0.29122 -0.86303,2.08222 -0.18268,1.74785 -0.28712,1.94693 -1.09176,2.08113 -0.44248,0.0738 -0.5181,-0.0418 -0.46157,-0.70549 0.0647,-0.75995 -0.378,-3.16974 -0.6773,-3.6866 -0.26868,-0.464 -0.54371,0.77401 -0.56233,2.53127 -0.0163,1.54169 -0.0849,1.77241 -0.56395,1.89769 -0.3054,0.0799 -0.59987,5.2e-4 -0.66927,-0.18032 z m 0.35077,-3.5386 c -0.0545,-0.69122 -0.0991,-0.12568 -0.0991,1.25677 0,1.38245 0.0446,1.948 0.0991,1.25677 0.0545,-0.69122 0.0545,-1.82232 0,-2.51354 z m -0.0137,-3.02617 c -0.0845,-0.21107 -0.14715,-0.14837 -0.15985,0.15985 -0.0115,0.27892 0.051,0.43519 0.13896,0.34727 0.0879,-0.0879 0.0973,-0.31613 0.0209,-0.50712 z m 7.10441,2.94682 c 0.005,-2.16132 0.1134,-4.02479 0.24086,-4.14104 0.12746,-0.11626 0.15003,-0.0689 0.0502,0.10522 -0.13034,0.22724 0.12243,0.2996 0.89562,0.25638 0.59247,-0.0331 1.20822,0.0207 1.36835,0.11972 0.43829,0.27088 0.0384,1.02709 -0.5431,1.02709 -1.08641,0 -0.99605,1.68673 0.10516,1.96311 0.78375,0.19671 0.87587,0.94731 0.11626,0.94731 -0.67912,0 -1.16609,1.14411 -0.78782,1.85093 0.14523,0.27135 0.5322,0.53144 0.85994,0.57799 0.32774,0.0465 0.59589,0.26321 0.59589,0.48149 0,0.29987 -0.32338,0.39688 -1.32292,0.39688 -0.7276,0 -1.38245,0.0775 -1.45521,0.17229 -0.0728,0.0948 -0.12819,-1.59605 -0.12318,-3.75737 z m 21.13494,3.73942 c -0.0603,-0.0606 -0.10785,-1.72751 -0.10562,-3.70417 0.004,-3.67441 0.20969,-4.67664 0.8316,-4.05473 0.18068,0.18069 0.78968,0.32852 1.35333,0.32852 0.82357,0 1.00775,0.0887 0.93788,0.45142 -0.0478,0.24828 -0.38396,0.52105 -0.747,0.60616 -1.18075,0.2768 -0.92139,2.11742 0.29837,2.11742 0.27322,0 0.49677,0.17859 0.49677,0.39687 0,0.21828 -0.21431,0.39688 -0.47625,0.39688 -0.63607,0 -1.11125,0.50912 -1.11125,1.19062 0,0.6815 0.47518,1.19063 1.11125,1.19063 0.29216,0 0.47625,0.19508 0.47625,0.50468 0,0.42546 -0.23197,0.5189 -1.47783,0.59531 -0.81281,0.0498 -1.52718,0.041 -1.5875,-0.0196 z m 0.348,-3.38958 c -0.0573,-0.54895 -0.10509,-0.16466 -0.10627,0.85399 -0.001,1.01865 0.0457,1.46779 0.10414,0.99809 0.0584,-0.4697 0.0594,-1.30314 0.002,-1.85208 z m -0.006,-3.04861 c -0.0631,-0.32743 -0.11467,-0.0595 -0.11467,0.59531 0,0.65484 0.0516,0.92273 0.11467,0.59531 0.0631,-0.32742 0.0631,-0.8632 0,-1.19062 z m 3.9099,6.409 c -0.24927,-0.40333 0.16534,-2.12306 0.46692,-1.93667 0.1786,0.11038 0.21626,-0.18609 0.10952,-0.86221 -0.1138,-0.72085 -0.0906,-0.87146 0.0771,-0.50127 0.21484,0.47419 0.24167,0.45358 0.25834,-0.19844 0.0102,-0.40018 -0.11595,-0.7276 -0.2804,-0.7276 -0.19767,0 -0.2537,-0.40183 -0.16533,-1.18582 0.0735,-0.6522 0.043,-1.12979 -0.0678,-1.06131 -0.28411,0.17559 -0.50222,-0.80316 -0.26466,-1.18755 0.26747,-0.43277 1.32595,0.2219 1.32595,0.82009 0,0.50219 0.62795,1.10469 0.88424,0.8484 0.0958,-0.0957 0.17409,-0.4519 0.17409,-0.79145 0,-0.44097 0.15119,-0.61736 0.52917,-0.61736 0.60385,0 0.63702,0.26482 0.2558,2.04235 -0.20801,0.96994 -0.18121,1.71426 0.11213,3.11363 0.42436,2.02449 0.40849,2.12598 -0.36417,2.32803 -0.29351,0.0768 -0.46693,0.0316 -0.38538,-0.10035 0.0815,-0.13195 0.0461,-0.23991 -0.0788,-0.23991 -0.12489,0 -0.17708,-0.42822 -0.11598,-0.95159 0.0953,-0.81651 0.0408,-0.93815 -0.38386,-0.8569 -0.3318,0.0635 -0.53855,0.38937 -0.62724,0.98864 -0.13287,0.89783 -1.12017,1.62653 -1.45962,1.07729 z m 0.84661,-5.06955 c -0.0845,-0.21107 -0.14716,-0.14837 -0.15985,0.15985 -0.0115,0.27892 0.051,0.43519 0.13896,0.34727 0.0879,-0.0879 0.0973,-0.31613 0.0209,-0.50712 z m 4.00696,5.07207 c -0.0494,-0.14806 -0.0379,-0.83267 0.0255,-1.52135 0.1064,-1.15619 0.12971,-1.19132 0.30422,-0.4584 0.10395,0.43656 0.14908,-0.27782 0.10029,-1.5875 -0.0671,-1.80141 -0.0334,-2.12354 0.13837,-1.32292 0.19365,0.90258 0.22057,0.76968 0.1829,-0.90297 -0.0346,-1.53594 0.0419,-1.98998 0.3527,-2.09355 0.35278,-0.11755 0.35278,-0.0786 0,0.35098 -0.37034,0.4509 -0.35823,0.46262 0.18104,0.17532 0.68364,-0.36423 1.14147,-0.38387 1.63662,-0.0702 0.36362,0.23034 1.18086,6.79038 0.90379,7.2548 -0.071,0.11906 -0.30188,0.15019 -0.513,0.0692 -0.21436,-0.0823 -0.31247,-0.0318 -0.2222,0.11425 0.0889,0.14386 0.0483,0.26155 -0.0902,0.26155 -0.13854,0 -0.32042,-0.17859 -0.40418,-0.39687 -0.0838,-0.21828 -0.037,-0.39688 0.10398,-0.39688 0.40222,0 0.29963,-0.45591 -0.14059,-0.62484 -0.5847,-0.22437 -1.11913,0.0583 -1.28106,0.67751 -0.0967,0.36961 -0.27993,0.49252 -0.56899,0.3816 -0.2479,-0.0951 -0.35873,-0.0541 -0.26475,0.0979 0.0889,0.14386 0.0455,0.26155 -0.0965,0.26155 -0.14198,0 -0.29853,-0.12114 -0.34788,-0.2692 z m 2.59703,-2.51216 c 0.0845,-0.22007 0.0414,-1.08327 -0.0955,-1.91823 -0.24285,-1.48009 -0.25684,-1.49946 -0.55872,-0.77329 -0.33537,0.80673 -0.41869,2.6298 -0.13325,2.91525 0.29353,0.29352 0.62518,0.1993 0.78751,-0.22373 z m 2.949,2.31719 c -0.15922,-0.19185 -0.28756,-1.26723 -0.28519,-2.38972 l 0.004,-2.0409 -0.18284,1.71979 c -0.17861,1.67997 -0.18329,1.66159 -0.20214,-0.79375 -0.0135,-1.75896 0.051,-2.31496 0.21472,-1.85208 0.1812,0.51217 0.20498,0.41128 0.10535,-0.44705 -0.13466,-1.16014 0.0665,-1.45926 1.05845,-1.57404 1.27568,-0.14761 1.95479,0.18961 2.26309,1.12377 0.35248,1.06803 0.16151,1.8133 -0.40858,1.59454 -0.21706,-0.0833 -0.39465,-0.0291 -0.39465,0.12045 0,0.14954 -0.11938,0.19811 -0.2653,0.10793 -0.17273,-0.10675 -0.1763,-0.33025 -0.0103,-0.64052 0.17834,-0.33323 0.14412,-0.62682 -0.11376,-0.97613 -0.67976,-0.92077 -0.96007,-0.10122 -0.87795,2.56685 0.0616,2.00273 0.15428,2.48983 0.47351,2.48983 0.21828,0 0.52658,-0.40129 0.6851,-0.89174 0.15853,-0.49046 0.47764,-0.99774 0.70914,-1.12729 0.36266,-0.20296 0.41265,-0.0557 0.36121,1.06399 -0.0328,0.71475 -0.20768,1.47786 -0.38854,1.69578 -0.43965,0.52975 -2.36788,0.70552 -2.74568,0.25029 z m 0.58502,0.0997 c 0,-0.0549 -0.20836,-0.2633 -0.46302,-0.46302 -0.41964,-0.32911 -0.429,-0.31975 -0.0999,0.0999 0.34564,0.44073 0.56291,0.58089 0.56291,0.36313 z m 4.39159,0.16995 c -0.087,-0.087 -0.13451,-1.47786 -0.10548,-3.09072 l 0.0528,-2.93246 0.15904,3.0427 0.15903,3.04271 0.0528,-3.24114 c 0.0535,-3.28865 0.0254,-3.38619 -0.93942,-3.2609 -0.1819,0.0236 -0.33059,-0.23016 -0.33043,-0.56396 2.7e-4,-0.56334 0.10827,-0.60586 1.50421,-0.59219 1.58449,0.0155 2.13214,0.44856 1.3191,1.04307 -0.33727,0.24662 -0.43963,0.92307 -0.49943,3.30056 -0.07,2.78476 -0.11436,3.00481 -0.64456,3.20048 -0.31314,0.11556 -0.64057,0.1389 -0.72761,0.0519 z m 15.10755,-5.2e-4 -1.27065,-0.0997 0.08,-1.2417 c 0.0788,-1.22309 0.0947,-1.24293 1.05492,-1.3228 1.13528,-0.0944 1.66453,0.5587 1.4787,1.82481 -0.0611,0.4163 0.0167,0.80994 0.17287,0.87477 0.15618,0.0648 0.1649,0.1058 0.0194,0.0911 -0.14553,-0.0148 -0.83638,-0.0717 -1.53524,-0.12647 z m -92.81787,-0.50209 c -0.13731,-0.16514 -0.29262,-1.05811 -0.34512,-1.98438 -0.0778,-1.37246 -0.0567,-1.48827 0.11399,-0.62578 0.15611,0.78875 0.20034,0.41806 0.17363,-1.45521 -0.0197,-1.38244 0.048,-2.64571 0.15044,-2.80725 0.10245,-0.16154 0.72708,-0.27119 1.38807,-0.24365 1.71542,0.0715 1.969,0.52006 1.97931,3.50148 0.009,2.65259 -0.31047,3.73002 -1.16143,3.91498 -0.85134,0.18505 -2.0226,0.0321 -2.29889,-0.30019 z m 0.38503,-0.24032 c -0.0862,-0.22456 -0.21342,-0.35154 -0.28277,-0.28218 -0.0694,0.0693 -0.0476,0.25308 0.0483,0.40828 0.26089,0.42213 0.41338,0.34013 0.23447,-0.1261 z m 1.86477,-0.80398 c 0.0883,-0.23018 0.1606,-1.34669 0.1606,-2.48114 0,-2.06032 -0.36822,-2.95082 -1.04675,-2.53146 -0.30183,0.18654 -0.39251,4.962 -0.0998,5.25473 0.31276,0.31276 0.82089,0.18797 0.98593,-0.24213 z m 10.17067,1.21775 c -0.0485,-0.1425 -0.0287,-1.86346 0.0441,-3.82434 0.0728,-1.96089 0.047,-3.47947 -0.0572,-3.37463 -0.10423,0.10484 -0.22745,1.61744 -0.27383,3.36133 l -0.0843,3.1707 -0.0569,-3.35782 c -0.0334,-1.97088 0.0501,-3.42397 0.20222,-3.51797 0.14252,-0.0881 0.4997,-0.0314 0.79375,0.12599 0.48886,0.26163 0.53464,0.54655 0.53464,3.32783 0,2.49744 0.073,3.06974 0.40828,3.19838 0.22456,0.0862 0.46472,0.10024 0.53369,0.0313 0.069,-0.069 0.15692,-1.42313 0.19545,-3.00925 0.0385,-1.58611 0.17509,-3.05291 0.30347,-3.25954 0.18201,-0.29295 0.12188,-0.3332 -0.27301,-0.18276 -0.39692,0.15121 -0.43734,0.12331 -0.18691,-0.12903 0.25094,-0.25287 0.4071,-0.24928 0.72761,0.0167 0.60214,0.49974 0.59562,6.66313 -0.008,7.26645 -0.49833,0.49833 -1.72018,0.54522 -2.21596,0.085 -0.28505,-0.26458 -0.31897,-0.26458 -0.16959,0 0.1027,0.1819 0.0705,0.33073 -0.0714,0.33073 -0.14198,0 -0.29784,-0.11659 -0.34634,-0.2591 z m 28.72996,0.0166 c -0.2159,-0.2147 -0.10726,-0.58022 0.12904,-0.43418 0.13195,0.0816 0.1776,-0.09 0.10144,-0.38126 -0.0762,-0.29124 -0.24366,-0.52953 -0.3722,-0.52953 -0.33308,0 -0.29053,-1.78575 0.0475,-1.99468 0.46082,-0.2848 1.24276,0.61998 1.11471,1.28982 -0.12983,0.67918 0.52519,1.38609 1.00791,1.08775 0.22333,-0.13802 0.27002,-1.10921 0.16646,-3.46236 -0.0899,-2.04363 -0.0473,-3.27053 0.11368,-3.27053 0.1417,0 0.17912,0.12703 0.0832,0.28228 -0.10472,0.16944 0.0212,0.24876 0.31511,0.19844 0.45023,-0.0771 0.49559,0.1687 0.56441,3.0582 0.0938,3.93749 -0.14099,4.45735 -1.96084,4.3422 -0.65976,-0.0417 -1.24945,-0.12552 -1.31042,-0.18615 z m 4.86415,-0.38471 c -0.20309,-0.37887 -0.18652,-0.44626 0.0706,-0.28733 0.25137,0.15536 0.279,0.0801 0.10974,-0.2988 -0.29333,-0.65671 -0.4081,-5.42101 -0.14204,-5.89643 0.11227,-0.20062 0.69728,-0.40918 1.30002,-0.46347 0.83237,-0.075 1.22303,0.0284 1.6246,0.42999 0.45996,0.45995 0.5287,0.88227 0.5287,3.24795 0,3.43014 -0.27464,3.94907 -2.03146,3.83835 -0.84426,-0.0532 -1.27273,-0.22054 -1.46019,-0.57026 z m 2.37768,-3.05784 c 0.0549,-1.78179 -0.0177,-2.54673 -0.25571,-2.69382 -0.69508,-0.42958 -1.01157,0.32784 -1.01157,2.42091 0,2.36935 0.15773,2.95879 0.7609,2.84348 0.35357,-0.0676 0.44331,-0.52316 0.50638,-2.57057 z m 37.69307,3.31347 c -0.0841,-0.13565 0.003,-0.1455 0.20207,-0.0227 0.25773,0.15929 0.30354,0.0944 0.17317,-0.24534 -0.0975,-0.25406 -0.17726,-0.57827 -0.17726,-0.72048 0,-0.14221 -0.11906,-0.18497 -0.26458,-0.095 -0.14944,0.0924 -0.26458,-0.12434 -0.26458,-0.49793 0,-1.27302 1.10484,-1.16975 1.56356,0.14613 0.30812,0.88386 0.90302,0.89307 1.03248,0.016 0.11141,-0.75483 -0.68485,-1.91316 -1.31515,-1.91316 -0.33927,0 -0.48428,-0.15521 -0.4326,-0.46302 0.0428,-0.25466 -0.0638,-0.43567 -0.23686,-0.40225 -0.17303,0.0334 -0.3927,-0.18528 -0.48815,-0.48602 -0.24688,-0.77785 0.0993,-2.35287 0.51709,-2.35287 0.1935,0 0.71148,-0.0719 1.15108,-0.15985 0.60288,-0.12058 0.93605,-0.0231 1.35599,0.39687 0.3062,0.3062 0.55672,0.73532 0.55672,0.9536 0,0.53469 -0.97074,0.5064 -1.27493,-0.0371 -0.27994,-0.50024 -0.84173,-0.26404 -0.84173,0.3539 0,0.2298 0.47625,0.93449 1.05833,1.56597 0.90423,0.98098 1.05833,1.31963 1.05833,2.3258 0,1.57085 -0.49872,2.04875 -2.03683,1.95178 -0.65329,-0.0412 -1.25456,-0.18258 -1.33615,-0.31421 z m -81.51649,-2.27422 c 0,-0.3638 0.06,-0.51263 0.13345,-0.33073 0.0734,0.1819 0.0734,0.47956 0,0.66146 -0.0734,0.1819 -0.13345,0.0331 -0.13345,-0.33073 z m 46.07501,-0.79375 c 0,-0.80037 0.0496,-1.12779 0.11022,-0.72761 0.0606,0.40019 0.0606,1.05503 0,1.45521 -0.0606,0.40018 -0.11022,0.0728 -0.11022,-0.7276 z m 40.66655,0 c 0,-0.14552 0.12609,-0.26459 0.2802,-0.26459 0.1541,0 0.20661,0.11907 0.11667,0.26459 -0.0899,0.14552 -0.21602,0.26458 -0.2802,0.26458 -0.0642,0 -0.11667,-0.11906 -0.11667,-0.26458 z m 0,-1.54329 c 0,-0.62046 0.10251,-0.73816 0.59531,-0.6835 0.32742,0.0363 0.68461,0.076 0.79375,0.0881 0.10914,0.0121 0.19844,0.15402 0.19844,0.31532 0,0.18312 -0.25637,0.22892 -0.68257,0.12195 -0.59765,-0.15 -0.66127,-0.10419 -0.51134,0.36819 0.0993,0.31294 0.0526,0.53951 -0.11118,0.53951 -0.15533,0 -0.28241,-0.33729 -0.28241,-0.74954 z m 1.98437,-0.57338 c -0.0899,-0.14552 0.0291,-0.26458 0.26459,-0.26458 0.23545,0 0.35452,0.11906 0.26458,0.26458 -0.0899,0.14552 -0.209,0.26458 -0.26458,0.26458 -0.0556,0 -0.17465,-0.11906 -0.26459,-0.26458 z m -1.84404,-1.41901 c 0.0335,-0.39937 0.1947,-0.53856 0.54889,-0.47408 0.27577,0.0502 0.82882,0.0848 1.22901,0.0768 0.55116,-0.011 0.7276,0.11125 0.7276,0.50403 0,0.58138 -0.27586,0.66599 -0.72079,0.22106 -0.21001,-0.21001 -0.52304,-0.21882 -1.06482,-0.03 -0.69606,0.24265 -0.76296,0.21497 -0.71989,-0.29786 z m -246.611006,-2.8805 c -0.06962,-0.1819 -0.09565,-6.81963 -0.05784,-14.75052 l 0.06874,-14.41979 h 9.921875 9.9218751 l 0.073612,3.63802 0.073612,3.63802 h -5.8283001 -5.8283 v 2.24896 2.24896 h 4.7625 4.7625 v 3.30729 c 0,1.81901 -0.02977,3.3299 -0.06615,3.35754 -0.03638,0.0276 -2.149739,0.11694 -4.696354,0.19844 l -4.630208,0.14819 -0.07215,5.00721 c -0.04535,3.14694 -0.180256,5.13747 -0.363126,5.35781 -0.40556,0.48867 -7.855812,0.50708 -8.042287,0.0199 z m 30.5542237,-0.29039 c -3.7239322,-1.44149 -6.3206893,-4.27464 -7.5547005,-8.24242 -0.443127,-1.42481 -0.4939969,-2.56363 -0.4963821,-11.1125 l -0.00266,-9.525 h 3.96875 3.9687499 l 0.1502631,8.59896 c 0.1236621,7.07669 0.2296521,8.84078 0.598716,9.96496 1.4122736,4.30185 6.4140178,4.71709 8.4097359,0.69817 0.62043,-1.2494 0.63224,-1.41478 0.713754,-9.99473 0.0535,-5.63138 0.182236,-8.84402 0.363126,-9.06198 0.324647,-0.39118 7.247992,-0.48391 7.845651,-0.10509 0.28853,0.18289 0.332811,1.95955 0.238947,9.5871 -0.10411,8.46009 -0.166092,9.51564 -0.643004,10.95011 -1.50371,4.52291 -4.121257,7.13843 -8.567849,8.56122 -0.521866,0.16699 -2.4169552,0.29077 -4.2333332,0.27652 -2.6917775,-0.0211 -3.5554801,-0.12915 -4.7597664,-0.59532 z M 25.1322,175.68126 c -0.464111,-0.46411 -0.470627,-28.54117 -0.0067,-29.00506 0.208102,-0.20811 1.311086,-0.3175 3.201138,-0.3175 3.453522,0 2.418464,-0.87486 9.173863,7.75398 2.965849,3.78836 4.961586,6.12246 5.07626,5.93691 0.103932,-0.16816 0.200269,-3.22582 0.214081,-6.7948 0.01381,-3.56898 0.120093,-6.58403 0.236177,-6.70011 0.116085,-0.11609 1.928123,-0.17791 4.026751,-0.13738 l 3.815688,0.0737 v 14.68437 14.68438 l -3.182774,0.0738 -3.182774,0.0738 -5.416184,-6.75398 c -2.978902,-3.71469 -5.503437,-6.75424 -5.610079,-6.75455 -0.106642,-3.1e-4 -0.225704,3.00576 -0.264583,6.68016 l -0.07069,6.68073 -3.842956,0.0729 c -2.764897,0.0524 -3.933912,-0.0181 -4.167188,-0.25136 z m 30.698164,0.13554 c -0.258946,-0.10448 -0.330729,-3.28601 -0.330729,-14.65844 v -14.525 l 0.67157,-0.16855 c 0.369363,-0.0927 3.732879,-0.11054 7.474479,-0.0396 7.395895,0.14015 8.337475,0.3029 11.285746,1.95072 2.734259,1.52821 5.299263,4.98341 6.260948,8.43385 0.487189,1.74799 0.48484,6.99606 -0.0039,8.73125 -1.072442,3.80747 -3.605279,7.01642 -6.765288,8.57122 -1.543784,0.75957 -2.237855,1.0042 -4.534452,1.59817 -1.079518,0.27919 -13.39907,0.37245 -14.058366,0.10642 z m 13.882578,-8.0537 c 2.417059,-1.34361 3.048941,-2.57999 3.198804,-6.25898 0.102722,-2.52171 0.06061,-2.81604 -0.594505,-4.15505 -0.387782,-0.79259 -1.06408,-1.74318 -1.502885,-2.11241 -1.076839,-0.9061 -3.299834,-1.51464 -5.177029,-1.41721 l -1.538733,0.0799 -0.0704,7.2099 -0.0704,7.20989 h 2.377455 c 1.922023,0 2.569062,-0.10651 3.37769,-0.55601 z m 11.545439,7.8281 c -0.188351,-0.49083 -0.30937,-0.0888 2.149013,-7.13979 3.051179,-8.75126 4.547277,-13.08408 6.009028,-17.4026 0.727695,-2.14987 1.498865,-4.08463 1.713713,-4.29948 0.546996,-0.547 7.018818,-0.56943 7.469913,-0.0259 0.232823,0.28053 3.590842,9.71166 5.051502,14.18734 0.11873,0.3638 1.2455,3.63802 2.50395,7.27604 1.25845,3.63802 2.29604,6.67412 2.30577,6.74688 0.13979,1.04531 0.0906,1.05833 -3.9981,1.05833 -2.87196,0 -4.01168,-0.0905 -4.16719,-0.33073 -0.11773,-0.1819 -0.577306,-1.46182 -1.021281,-2.84427 l -0.807228,-2.51354 -3.613782,-0.0735 -3.613782,-0.0736 -0.708227,2.32251 c -1.18453,3.88444 -0.636513,3.51312 -5.184902,3.51312 -3.270582,0 -3.960542,-0.0676 -4.088397,-0.40083 z m 15.681562,-11.70386 c -0.07421,-0.25466 -0.504569,-1.77271 -0.956346,-3.37343 -1.107173,-3.92293 -1.065505,-3.8303 -1.368618,-3.04271 -0.61148,1.58882 -2.001472,6.59859 -1.867883,6.73218 0.08084,0.0808 1.087663,0.14698 2.237382,0.14698 1.865871,0 2.075906,-0.0497 1.955465,-0.46302 z m 21.001357,11.51165 c -5.8318,-2.16513 -10.08067,-8.3285 -10.04474,-14.57077 0.0255,-4.42925 2.28009,-8.92049 5.75406,-11.46235 2.68139,-1.96195 4.01644,-2.51758 7.26724,-3.02457 3.29791,-0.51432 7.57844,0.39447 10.12032,2.14863 1.53727,1.06088 3.83645,3.61557 3.83645,4.26279 0,0.20663 -3.12022,2.58849 -4.99249,3.81109 l -1.15604,0.75489 -0.50815,-0.62754 c -0.27948,-0.34515 -0.5927,-0.7633 -0.69605,-0.92922 -0.38292,-0.6148 -1.81632,-1.40348 -3.17432,-1.74658 -1.11117,-0.28072 -1.70274,-0.2897 -2.8758,-0.0436 -2.60236,0.54585 -3.99058,2.0624 -4.76666,5.20732 -0.36631,1.48439 -0.38676,2.03582 -0.12763,3.44217 0.35942,1.95062 0.7263,2.7357 1.86137,3.98305 1.27011,1.39576 2.28337,1.81565 4.403,1.82461 2.30607,0.01 3.43439,-0.48803 4.84377,-2.13686 l 1.04664,-1.22447 0.79692,0.56746 c 0.43831,0.3121 0.87615,0.56746 0.97299,0.56746 0.0968,0 0.69522,0.35718 1.32975,0.79375 0.63452,0.43656 1.25578,0.79375 1.38058,0.79375 0.1248,0 0.63729,0.3426 1.13886,0.76133 0.85875,0.71692 0.89076,0.80095 0.54867,1.44015 -0.85181,1.59163 -3.30633,3.68836 -5.44936,4.65503 -2.50475,1.12983 -3.63744,1.34644 -6.89796,1.31918 -2.47876,-0.0207 -3.46856,-0.14235 -4.61142,-0.56665 z m 19.89667,0.27554 c -0.23915,-0.23914 -0.3175,-3.8618 -0.3175,-14.67933 v -14.36184 l 0.59531,-0.14492 c 0.32742,-0.0797 4.94109,-0.11175 10.2526,-0.0712 l 9.6573,0.0737 0.0736,3.63303 0.0736,3.63304 -6.02671,0.0711 -6.0267,0.0711 v 1.71979 1.7198 l 4.96411,0.0164 c 3.00261,0.01 5.07087,0.12316 5.2343,0.28659 0.16252,0.16252 0.24033,1.52662 0.19526,3.42318 l -0.0749,3.15299 -5.22552,0.0717 -5.22553,0.0717 v 1.97878 1.97878 h 6.0325 c 4.33917,0 6.12163,0.0891 6.35,0.3175 0.2136,0.2136 0.3175,1.41658 0.3175,3.67586 0,2.81831 -0.0673,3.38419 -0.41851,3.51896 -0.23018,0.0883 -4.84981,0.1606 -10.26583,0.1606 -7.30625,0 -9.92925,-0.0819 -10.16482,-0.3175 z m 24.14556,-0.0132 c -0.0696,-0.1819 -0.0957,-6.81963 -0.0579,-14.75052 l 0.0687,-14.41979 2.98444,-0.0749 c 1.64144,-0.0412 3.1493,0.0183 3.35079,0.1323 0.2015,0.11394 1.10162,1.15967 2.00028,2.32384 0.89866,1.16417 1.91588,2.47385 2.2605,2.91042 0.34462,0.43656 2.03056,2.57483 3.74653,4.75171 l 3.11996,3.95796 0.13229,-7.00067 0.13229,-7.00067 3.80037,-0.0736 c 2.57701,-0.0499 3.91846,0.0244 4.16719,0.23084 0.30445,0.25267 0.36613,2.71693 0.36276,14.49338 -0.002,7.80393 -0.10099,14.34174 -0.21948,14.52848 -0.16012,0.25235 -1.02098,0.32028 -3.3531,0.26458 l -3.13767,-0.0749 -3.52436,-4.36563 c -1.9384,-2.40109 -3.67213,-4.54461 -3.85274,-4.76337 -0.18061,-0.21876 -0.74344,-0.93314 -1.25072,-1.5875 -0.50728,-0.65436 -1.25087,-1.54694 -1.65242,-1.9835 l -0.73009,-0.79375 -0.001,6.49552 c -8.9e-4,4.69787 -0.0891,6.58339 -0.31873,6.81302 -0.4574,0.4574 -7.85231,0.44522 -8.02777,-0.0132 z m 35.50916,-0.37482 c -0.097,-0.097 -0.17639,-1.34717 -0.17639,-2.77813 v -2.60174 h 2.87802 c 2.16995,0 2.95511,-0.0929 3.19135,-0.37754 0.20171,-0.24304 0.29376,-1.25631 0.25841,-2.84427 l -0.0549,-2.46673 3.01513,-0.13229 3.01514,-0.13229 0.0415,-2.99605 c 0.0228,-1.64783 0.13123,-3.07658 0.24086,-3.175 0.10962,-0.0984 0.10117,-0.01 -0.0188,0.19674 -0.16467,0.28364 -0.10493,0.33226 0.24381,0.19844 0.25405,-0.0975 1.57924,-0.17726 2.94487,-0.17726 h 2.48295 l 0.0751,-2.84427 0.0751,-2.84427 2.84427,-0.0751 2.84427,-0.0751 v 11.65062 11.65061 h -11.86215 c -6.52418,0 -11.94153,-0.0794 -12.03854,-0.17638 z m 5.90903,-11.46528 c 0.21828,-0.14107 0.51593,-0.25648 0.66146,-0.25648 0.14552,0 0.086,0.11541 -0.1323,0.25648 -0.21828,0.14106 -0.51593,0.25648 -0.66145,0.25648 -0.14553,0 -0.086,-0.11542 0.13229,-0.25648 z"
         id="path7" /><path
         style="fill:#1a98a6"
         d="m 122.61561,185.34064 c -0.097,-0.097 -0.17639,-1.76389 -0.17639,-3.70416 v -3.52778 h 1.4459 c 1.67054,0 1.99368,0.34025 1.99368,2.09927 0,1.18241 -0.6953,2.13406 -1.55919,2.13406 -0.61865,0 -0.82206,0.49636 -0.82206,2.00602 0,1.10395 -0.36255,1.51199 -0.88194,0.99259 z m 1.92819,-4.43925 c 0.43993,-0.53008 0.24123,-1.5782 -0.31944,-1.68506 -0.56634,-0.10795 -0.84114,0.51747 -0.61801,1.4065 0.18808,0.74936 0.47577,0.83485 0.93745,0.27856 z m 3.18708,4.08647 c -0.46489,-0.46489 -0.52916,-0.88194 -0.52916,-3.43348 0,-2.80371 0.0228,-2.91929 0.65953,-3.33646 0.76112,-0.4987 1.8952,-0.32501 2.42457,0.37134 0.43356,0.57033 0.47304,5.15172 0.0513,5.95298 -0.59026,1.12139 -1.73477,1.31708 -2.60623,0.44562 z m 1.69149,-0.94768 c 0.0883,-0.23018 0.1606,-1.34669 0.1606,-2.48114 0,-2.06032 -0.36822,-2.95082 -1.04675,-2.53146 -0.30183,0.18654 -0.39251,4.962 -0.0998,5.25473 0.31276,0.31276 0.82089,0.18797 0.98593,-0.24213 z m 2.80643,-2.16382 c 0,-2.02371 0.0535,-3.73295 0.11886,-3.79832 0.0654,-0.0654 0.74998,-0.0554 1.52135,0.0221 l 1.4025,0.1409 0.0588,3.65601 c 0.0536,3.33473 0.0188,3.64838 -0.39688,3.56922 -0.36259,-0.0691 -0.47177,-0.42408 -0.53445,-1.73778 -0.0677,-1.41945 -0.14944,-1.65099 -0.58269,-1.65099 -0.43324,0 -0.51496,0.23154 -0.58269,1.65099 -0.0632,1.3244 -0.17036,1.66843 -0.54179,1.73919 -0.423,0.0806 -0.46302,-0.2298 -0.46302,-3.59127 z m 2.21235,-1.5187 c 0.23096,-0.60188 -0.092,-1.19063 -0.65316,-1.19063 -0.38012,0 -0.50086,0.19134 -0.50086,0.79375 0,0.60241 0.12074,0.79375 0.50086,0.79375 0.27548,0 0.5694,-0.17859 0.65316,-0.39687 z m 5.62543,4.6662 c -0.37761,-0.41726 -0.43483,-0.99763 -0.37173,-3.77031 0.0615,-2.70348 0.14405,-3.27714 0.47145,-3.27714 0.32335,0 0.42138,0.58763 0.52917,3.17205 0.11463,2.74871 0.19409,3.18387 0.59531,3.26055 0.49296,0.0942 0.46626,0.29389 0.5595,-4.18365 0.0197,-0.94588 0.13334,-1.87056 0.25253,-2.05483 0.50327,-0.77804 0.70932,0.1638 0.70932,3.24218 0,2.62247 -0.0826,3.35539 -0.41577,3.68855 -0.56483,0.56482 -1.78526,0.52428 -2.32978,-0.0774 z m 4.51496,0.32229 c -0.27392,-0.27391 -0.21868,-7.1835 0.0588,-7.35499 0.52007,-0.32142 1.07071,0.21687 1.27415,1.24557 0.30745,1.5547 0.86639,1.6093 0.86639,0.0846 0,-1.03628 0.077,-1.21267 0.52917,-1.21267 0.50397,0 0.52917,0.17639 0.52917,3.70416 0,3.51591 -0.0266,3.70417 -0.52413,3.70417 -0.34605,0 -0.57078,-0.22473 -0.66146,-0.66146 -0.0755,-0.3638 -0.19913,-0.95911 -0.27466,-1.32291 -0.24282,-1.16954 -0.88356,-0.791 -0.97265,0.57463 -0.0756,1.15866 -0.40708,1.65657 -0.82478,1.23886 z m 4.94328,-1.6812 c 0.0916,-1.01865 0.2414,-2.68552 0.33296,-3.70417 l 0.16648,-1.85208 h 0.89185 c 0.49052,0 0.98115,-0.0298 1.0903,-0.0661 0.19935,-0.0665 0.73175,3.55157 0.88556,6.01798 0.067,1.07448 -0.002,1.33784 -0.36773,1.40832 -0.2856,0.055 -0.54475,-0.16215 -0.70895,-0.59402 -0.32935,-0.86625 -1.0045,-0.87602 -1.33024,-0.0193 -0.13832,0.36381 -0.44841,0.66146 -0.6891,0.66146 -0.38127,0 -0.41617,-0.23845 -0.27113,-1.85208 z m 2.23272,-0.9744 c 0.11675,-0.81595 -0.45505,-2.77564 -0.75567,-2.58985 -0.13873,0.0857 -0.25224,0.87197 -0.25224,1.74718 0,1.37274 0.0636,1.57917 0.46303,1.50304 0.25466,-0.0485 0.49985,-0.3457 0.54488,-0.66037 z m 5.40098,-0.94383 c 0.0722,-3.71037 0.0831,-3.77169 0.68328,-3.85677 0.94125,-0.13343 1.3745,0.40991 1.3745,1.72375 0,1.19044 0.35696,2.19916 0.77823,2.19916 0.12675,0 0.30976,-0.62507 0.40671,-1.38906 0.28169,-2.21995 0.33703,-2.3151 1.34643,-2.3151 h 0.90821 v 3.70416 c 0,3.06871 -0.0662,3.70417 -0.38574,3.70417 -0.29769,0 -0.40339,-0.46322 -0.46302,-2.02929 -0.0493,-1.29555 -0.19333,-2.06767 -0.39825,-2.13546 -0.33618,-0.1112 -0.42924,0.19403 -0.78493,2.57444 -0.1594,1.0668 -0.34015,1.47589 -0.68083,1.5409 -0.51889,0.099 -0.53287,0.0658 -0.98131,-2.32885 -0.17683,-0.94424 -0.39103,-1.8293 -0.47602,-1.96681 -0.28337,-0.45851 -0.55499,0.75289 -0.5738,2.55913 -0.0148,1.41727 -0.10202,1.78594 -0.42274,1.78594 -0.34699,0 -0.39375,-0.53315 -0.33072,-3.77031 z m 7.27345,3.60612 c -0.10372,-0.10372 -0.18859,-1.77609 -0.18859,-3.71636 0,-2.63206 0.084,-3.53434 0.33073,-3.55361 0.99981,-0.0781 2.08997,-0.0229 2.2255,0.11261 0.30172,0.30171 -0.16574,0.97155 -0.67801,0.97155 -1.08645,0 -0.97882,1.68842 0.1253,1.96554 0.77654,0.1949 0.86115,0.94488 0.1066,0.94488 -0.67912,0 -1.16609,1.14411 -0.78782,1.85093 0.14523,0.27135 0.5322,0.53144 0.85994,0.57799 0.32774,0.0465 0.59589,0.26321 0.59589,0.48149 0,0.28296 -0.3446,0.41937 -1.20048,0.47522 -0.66026,0.0431 -1.28534,-0.007 -1.38906,-0.11024 z m 4.46052,-0.25158 c -0.22867,-0.22868 -0.42556,-0.5561 -0.43753,-0.72761 -0.012,-0.1715 -0.0697,-0.60948 -0.12831,-0.97329 -0.0586,-0.3638 0.002,-0.83239 0.13388,-1.04132 0.35764,-0.56502 1.03112,0.0907 0.88394,0.86066 -0.12629,0.66068 0.516,1.39615 0.97274,1.11387 0.16556,-0.10232 0.27617,-1.37178 0.27617,-3.16947 0,-2.32859 0.0829,-3.03061 0.37101,-3.14116 0.20406,-0.0783 0.44218,-0.0712 0.52917,0.0158 0.087,0.087 0.15816,1.54058 0.15816,3.23019 0,2.35221 -0.0965,3.20982 -0.41188,3.66007 -0.48912,0.69832 -1.73022,0.7894 -2.34735,0.17227 z m 4.99261,0.0402 c -0.45699,-0.33416 -0.51359,-0.71175 -0.51359,-3.42635 0,-1.74273 0.11699,-3.1678 0.27285,-3.32366 0.15007,-0.15007 0.64368,-0.34702 1.09692,-0.43766 0.63071,-0.12615 0.95469,-0.0342 1.38079,0.39191 0.49369,0.49369 0.55673,0.86463 0.55673,3.27598 0,2.03292 -0.10396,2.86768 -0.41188,3.30729 -0.47676,0.68067 -1.60401,0.78124 -2.38182,0.21249 z m 1.67973,-3.30953 c 0.0549,-1.78179 -0.0177,-2.54673 -0.25571,-2.69382 -0.69508,-0.42958 -1.01157,0.32784 -1.01157,2.42091 0,2.36935 0.15773,2.95879 0.7609,2.84348 0.35357,-0.0676 0.44331,-0.52316 0.50638,-2.57057 z m 2.76023,-0.0644 0.0735,-3.79113 1.30746,0.0664 c 0.7191,0.0365 1.39278,0.20446 1.49708,0.37321 0.10429,0.16875 0.17077,1.80574 0.14775,3.63777 -0.0348,2.76586 -0.1092,3.33096 -0.43875,3.33096 -0.29389,0 -0.4312,-0.41132 -0.52916,-1.58518 -0.1015,-1.21624 -0.23702,-1.60504 -0.58225,-1.67053 -0.37861,-0.0718 -0.46252,0.17911 -0.52917,1.58252 -0.0641,1.35084 -0.16862,1.68491 -0.54962,1.7575 -0.43582,0.083 -0.46501,-0.18912 -0.39687,-3.70151 z m 2.05791,-1.80676 c 0,-0.61736 -0.11759,-0.79375 -0.52917,-0.79375 -0.41157,0 -0.52917,0.17639 -0.52917,0.79375 0,0.61736 0.1176,0.79375 0.52917,0.79375 0.41158,0 0.52917,-0.17639 0.52917,-0.79375 z m 5.29166,1.89618 c 0,-2.01304 0.0511,-3.7112 0.11364,-3.7737 0.0625,-0.0625 0.66413,-0.0699 1.33697,-0.0163 0.9493,0.0755 1.20506,0.1922 1.14175,0.52096 -0.0449,0.23301 -0.37862,0.49329 -0.74166,0.5784 -1.18075,0.2768 -0.92139,2.11742 0.29837,2.11742 0.27322,0 0.49677,0.17859 0.49677,0.39687 0,0.21828 -0.21431,0.39688 -0.47625,0.39688 -0.63607,0 -1.11125,0.50912 -1.11125,1.19062 0,0.6815 0.47518,1.19063 1.11125,1.19063 0.29986,0 0.47625,0.19599 0.47625,0.52916 0,0.45862 -0.17639,0.52917 -1.32292,0.52917 h -1.32292 z m 4.23334,3.10009 c 0,-0.32934 0.13914,-1.27244 0.3092,-2.09579 0.2349,-1.13726 0.23558,-1.86355 0.003,-3.02238 -0.16849,-0.83896 -0.24429,-1.62579 -0.16844,-1.74852 0.22766,-0.36836 0.91471,0.0398 0.91471,0.54342 0,0.52984 0.61924,1.14873 0.88424,0.88373 0.0958,-0.0957 0.17409,-0.4519 0.17409,-0.79145 0,-0.44097 0.15119,-0.61736 0.52917,-0.61736 0.60385,0 0.63702,0.26482 0.2558,2.04235 -0.2085,0.97221 -0.18106,1.71294 0.11564,3.12188 0.39652,1.88292 0.26973,2.44523 -0.48595,2.15525 -0.27037,-0.10376 -0.41466,-0.49099 -0.41466,-1.11287 0,-0.76567 -0.0913,-0.93628 -0.46302,-0.8652 -0.30116,0.0576 -0.50926,0.41016 -0.59531,1.00859 -0.15593,1.08444 -1.05833,1.50936 -1.05833,0.49835 z m 4.93702,0.36154 c -0.0667,-0.10914 0.0156,-1.72089 0.18283,-3.58168 0.30803,-3.4269 0.48418,-3.88469 1.49473,-3.88469 0.94753,0 1.12203,0.46167 1.46037,3.86358 0.18622,1.87239 0.24185,3.50709 0.12362,3.63266 -0.27551,0.2926 -0.79024,-0.0202 -0.79024,-0.48019 0,-0.85058 -1.44161,-0.73146 -1.66895,0.1379 -0.13396,0.51227 -0.57519,0.68408 -0.80236,0.31242 z m 2.11229,-2.31834 c 0.0845,-0.22007 0.0414,-1.08327 -0.0955,-1.91823 -0.24285,-1.48009 -0.25684,-1.49946 -0.55872,-0.77329 -0.33537,0.80673 -0.41869,2.6298 -0.13325,2.91525 0.29353,0.29352 0.62518,0.1993 0.78751,-0.22373 z m 3.17815,2.03293 c -0.34987,-0.38661 -0.43788,-1.05135 -0.43788,-3.30729 0,-2.47066 0.0661,-2.88956 0.52917,-3.35261 0.56163,-0.56164 0.83508,-0.61723 1.78444,-0.36279 0.69175,0.18539 1.40003,2.04665 0.95006,2.49662 -0.35255,0.35255 -1.21248,0.006 -1.04809,-0.42246 0.0711,-0.18536 -0.0331,-0.55695 -0.23156,-0.82576 -0.67169,-0.90963 -0.95182,-0.0797 -0.87003,2.57769 0.0616,2.00273 0.15428,2.48983 0.47351,2.48983 0.22017,0 0.53014,-0.41231 0.69618,-0.92605 0.42803,-1.3243 1.02926,-1.21387 1.00184,0.18401 -0.012,0.61052 -0.17538,1.29513 -0.36312,1.52135 -0.46934,0.56552 -1.9461,0.5224 -2.48452,-0.0725 z m 5.11837,-2.65392 c 0,-2.9442 -0.0387,-3.18886 -0.52917,-3.34452 -0.89813,-0.28506 -0.6384,-0.92604 0.37524,-0.92604 0.49742,0 1.09173,-0.0719 1.32069,-0.15975 0.59974,-0.23014 0.88688,0.68093 0.34051,1.08044 -0.34583,0.25288 -0.44562,0.91 -0.50601,3.33201 -0.0655,2.62784 -0.13494,3.02845 -0.53824,3.10572 -0.42019,0.0805 -0.46302,-0.20515 -0.46302,-3.08786 z m 3.35705,2.93933 c -0.11402,-0.19889 0.29226,-5.49612 0.50732,-6.61458 0.0978,-0.50864 0.28212,-0.59531 1.26601,-0.59531 h 1.15154 l 0.22931,2.97656 c 0.30148,3.91336 0.29458,4.23574 -0.0935,4.36508 -0.181,0.0603 -0.44595,-0.19763 -0.58876,-0.57326 -0.34229,-0.9003 -1.25687,-0.91263 -1.59568,-0.0215 -0.24581,0.64654 -0.64895,0.85956 -0.87628,0.46302 z m 2.15466,-2.84031 c 0.11414,-0.97421 -0.17863,-2.5175 -0.47758,-2.5175 -0.29738,0 -0.65381,2.77068 -0.40766,3.16895 0.30827,0.49879 0.7922,0.14267 0.88524,-0.65145 z m 3.30224,2.83088 c -0.41855,-0.26614 -0.80634,-1.3976 -0.67689,-1.97494 0.16531,-0.73722 0.78113,-0.53726 1.09203,0.35459 0.32951,0.94525 0.91963,0.91111 1.03622,-0.0599 0.0551,-0.45924 -0.21036,-0.96337 -0.88287,-1.67644 -1.22269,-1.29643 -1.4997,-2.02019 -1.1534,-3.01359 0.24643,-0.70691 0.8498,-1.08119 1.75898,-1.09112 0.45716,-0.005 1.38906,0.96885 1.38906,1.45159 0,0.53469 -0.97074,0.5064 -1.27493,-0.0371 -0.27994,-0.50024 -0.84173,-0.26404 -0.84173,0.3539 0,0.2298 0.47625,0.93449 1.05833,1.56597 0.90423,0.98098 1.05833,1.31963 1.05833,2.3258 0,0.7178 -0.16234,1.33998 -0.41577,1.59341 -0.43554,0.43554 -1.61046,0.54929 -2.14736,0.2079 z m 4.73083,-1.03379 c 0.0804,-1.25762 0.0922,-1.27279 1.05615,-1.35297 1.11491,-0.0927 1.63127,0.51346 1.48882,1.74782 -0.0753,0.65229 -0.19323,0.7216 -1.35434,0.79578 l -1.27189,0.0813 z m 0.39714,-3.95462 c -0.0931,-0.0931 -0.10909,-0.26645 -0.0356,-0.38532 0.16497,-0.26692 0.91038,-0.006 0.91038,0.31824 0,0.27149 -0.6226,0.31923 -0.87475,0.0671 z m 1.27162,-0.35997 c -0.0899,-0.14552 0.0291,-0.26458 0.26459,-0.26458 0.23545,0 0.35452,0.11906 0.26458,0.26458 -0.0899,0.14552 -0.209,0.26458 -0.26458,0.26458 -0.0556,0 -0.17465,-0.11906 -0.26459,-0.26458 z m -0.01,-1.07382 c -0.10151,-0.16425 -0.5039,-0.20742 -0.97301,-0.10439 -0.60838,0.13363 -0.77132,0.0898 -0.68049,-0.18294 0.0716,-0.2151 0.56072,-0.37572 1.22198,-0.40132 0.92399,-0.0358 1.10255,0.0392 1.10255,0.46302 0,0.547 -0.39113,0.67851 -0.67103,0.22563 z M 3.7112977,175.31957 c -4.27617213,-1.15163 -7.0860868,-4.06597 -8.4513838,-8.76548 -0.6044374,-2.08054 -0.8742332,-19.65259 -0.3022779,-19.68763 0.2743979,-0.0168 6.3789179,-0.002 7.1406547,0.0169 0.097229,0.002 0.2184221,3.9633 0.269318,8.80187 0.089528,8.51122 0.1120325,8.83686 0.6918239,10.0107 0.3296072,0.66732 1.0186989,1.61982 1.5313149,2.11667 0.8889978,0.86165 1.021834,0.90336 2.8771497,0.90336 1.7786069,0 2.0321601,-0.0701 2.9618668,-0.81823 0.675616,-0.54371 1.222202,-1.32905 1.629111,-2.34073 0.595231,-1.47989 0.612105,-1.75312 0.603075,-9.7651 -0.0051,-4.53343 0.08716,-8.39729 0.205035,-8.58634 0.157142,-0.25202 1.137418,-0.34811 3.674088,-0.36013 1.90287,-0.009 3.588868,0.0634 3.746663,0.1609 0.195396,0.12076 0.286578,2.59843 0.285893,7.76847 -0.001,7.80072 -0.261468,10.73834 -1.176535,13.27103 -1.383373,3.82885 -4.521979,6.5376 -8.558919,7.38669 -1.8962743,0.39884 -5.4346762,0.34275 -7.1268773,-0.11298 z m 115.3492323,0.0138 c -3.94245,-1.10692 -7.31241,-3.99573 -9.26279,-7.94027 -1.07577,-2.17569 -1.42324,-3.80901 -1.41739,-6.66249 0.008,-4.0774 1.4825,-7.40335 4.53317,-10.22773 1.97728,-1.83062 3.6173,-2.74336 6.06229,-3.37393 3.67145,-0.94689 7.83412,-0.51583 10.92438,1.13126 1.5668,0.8351 4.44528,3.62824 4.44528,4.3135 0,0.33531 -3.58125,3.13087 -4.96265,3.87389 -0.54077,0.29087 -0.68344,0.22017 -1.51412,-0.75029 -1.26993,-1.48363 -2.88927,-2.19483 -4.99741,-2.19483 -2.04572,0 -3.14805,0.42679 -4.50426,1.74392 -1.62163,1.57491 -2.12031,2.9704 -2.11871,5.92899 10e-4,2.19257 0.0895,2.68248 0.69125,3.83646 1.29723,2.48753 3.32571,3.85812 5.73765,3.8768 2.18509,0.0169 3.47891,-0.4954 4.86519,-1.92654 0.6967,-0.71924 1.35155,-1.26538 1.45521,-1.21363 0.10366,0.0517 1.46099,0.85014 3.01629,1.77421 l 2.82782,1.68012 -0.37082,0.71707 c -1.03978,2.01073 -3.46569,3.84002 -6.54786,4.93752 -2.40614,0.85677 -6.68733,1.0867 -8.86252,0.47597 z m -146.728255,-0.0469 c -0.244922,-0.24493 -0.223067,-28.39768 0.02205,-28.4026 0.406105,-0.008 18.7323783,-0.0123 19.0581438,-0.004 0.2606978,0.006 0.3217349,0.75601 0.2645834,3.24945 l -0.074289,3.24115 -5.8208342,0.13229 -5.820833,0.13229 v 2.38125 2.38125 l 4.7625,0.13229 4.7625,0.13229 0.07481,2.97656 0.07481,2.97657 -4.308145,0.004 c -2.369479,0.002 -4.576035,0.0754 -4.903457,0.16315 -0.592052,0.15866 -0.595312,0.18835 -0.595312,5.42035 v 5.2608 h -3.66007 c -2.013038,0 -3.739444,-0.0794 -3.836458,-0.17638 z m 53.068724,-14.15033 0.06843,-14.34126 2.778125,0.0326 c 1.527969,0.018 2.859801,0.0389 2.959628,0.0465 0.09983,0.008 1.461181,1.65095 3.025233,3.65186 1.564052,2.00092 4.02995,5.15607 5.479772,7.01146 1.449823,1.85539 2.79714,3.37344 2.994038,3.37344 0.291933,0 0.357996,-1.29386 0.357996,-7.01146 0,-3.8563 0.0893,-7.01272 0.198437,-7.01427 1.97015,-0.0279 6.897014,-0.0448 7.14375,-0.0245 0.260164,0.0215 0.330729,3.07571 0.330729,14.31477 v 14.2875 h -3.125641 -3.125641 l -5.497356,-6.87916 c -3.023545,-3.78354 -5.60359,-6.87917 -5.733433,-6.87917 -0.130442,0 -0.267675,3.04858 -0.306691,6.81302 l -0.07061,6.81302 -3.772594,0.0734 -3.772595,0.0734 z m 30.627803,0.061 v -14.30931 l 5.622396,-0.0235 c 7.327032,-0.0306 7.920939,-0.004 9.62036,0.43911 3.14877,0.82015 5.814499,2.63724 7.476358,5.09623 3.867726,5.72294 3.265726,14.41676 -1.31911,19.05001 -1.579027,1.59569 -2.90567,2.43738 -5.149271,3.26693 -1.440004,0.53243 -2.158636,0.58765 -8.908546,0.68449 l -7.342187,0.10535 z m 14.153766,6.7399 c 4.925243,-2.88638 4.138025,-12.54271 -1.151729,-14.12756 -0.563689,-0.16888 -1.980603,-0.30706 -3.148697,-0.30706 -1.69256,0 -2.156419,0.085 -2.284408,0.41851 -0.08833,0.23018 -0.160599,3.54012 -0.160599,7.35542 0,5.18986 0.08329,7.02344 0.330729,7.28053 0.241939,0.25137 0.981883,0.3113 2.756153,0.22322 2.033449,-0.10094 2.624709,-0.23719 3.658551,-0.84306 z m 11.250892,7.46672 c 0.0053,-0.0831 2.240103,-6.56878 5.814451,-16.87426 1.337518,-3.8563 2.788679,-8.05326 3.224802,-9.32656 0.436123,-1.27331 0.87161,-2.31815 0.967749,-2.32186 2.645375,-0.10227 6.754939,6.2e-4 6.922081,0.17329 0.190237,0.19653 1.57528,4.07367 3.437677,9.62305 0.2686,0.80036 1.45927,4.25317 2.64594,7.67291 2.20526,6.35516 3.70556,10.81046 3.70556,11.00407 0,0.0596 -1.71196,0.10843 -3.80436,0.10843 H 100.543 l -0.27732,-0.7276 c -0.15253,-0.40018 -0.553928,-1.62057 -0.891998,-2.71198 l -0.614672,-1.98437 h -3.9411 -3.9411 l -0.829421,2.64583 -0.829421,2.64583 -3.894583,0.0732 c -2.142021,0.0403 -3.892487,0.0403 -3.889925,0 z m 15.779958,-10.93494 c 0.182961,-0.47679 -1.997308,-8.32057 -2.312798,-8.32057 -0.325275,0 -0.487764,0.36612 -1.023792,2.30682 -0.272565,0.98682 -0.753475,2.66617 -1.068689,3.73189 -0.315213,1.06572 -0.507939,2.10752 -0.42828,2.31511 0.219235,0.57132 4.613164,0.54109 4.833559,-0.0333 z m 40.900082,-3.29771 0.0684,-14.29172 9.525,-0.002 c 5.23875,-0.001 9.67749,6.8e-4 9.86387,0.004 0.26077,0.005 0.32175,0.7534 0.26458,3.24758 l -0.0743,3.24115 -5.94072,0.0713 c -4.34756,0.0522 -5.99619,0.15865 -6.14752,0.39687 -0.26813,0.4221 -0.26852,3.13876 -5.1e-4,3.56063 0.14834,0.2335 1.61487,0.34497 5.22147,0.39688 l 5.0152,0.0722 0.0745,3.10886 0.0745,3.10885 h -5.00308 c -3.76407,0 -5.07328,0.0846 -5.28653,0.34153 -0.36205,0.43625 -0.35563,3.65093 0.008,4.08928 0.20597,0.24818 1.79934,0.33169 6.3283,0.33169 h 6.05302 v 3.30729 3.30729 h -10.05645 -10.05644 z m 24.18961,14.11534 c -0.097,-0.097 -0.17639,-6.45984 -0.17639,-14.1396 0,-10.37672 0.0795,-14.01235 0.30959,-14.15454 0.17028,-0.10524 1.49801,-0.20156 2.95051,-0.21405 3.12114,-0.0268 2.30166,-0.67597 7.4868,5.93041 5.90356,7.52172 6.46157,8.20208 6.727,8.20208 0.15482,0 0.25318,-2.72409 0.25318,-7.01146 0,-6.4973 0.034,-7.01221 0.46302,-7.02167 4.40669,-0.0972 7.05447,0.022 7.2487,0.32635 0.12119,0.18993 0.19181,6.5961 0.15692,14.23595 l -0.0634,13.89062 -3.09679,0.0744 -3.09679,0.0744 -5.35181,-6.68902 c -2.9435,-3.67896 -5.47333,-6.77047 -5.62183,-6.87 -0.14851,-0.0995 -0.365,-0.12228 -0.48109,-0.0505 -0.11608,0.0717 -0.21107,3.15951 -0.21107,6.8617 v 6.73126 h -3.66007 c -2.01303,0 -3.73944,-0.0794 -3.83645,-0.17638 z m 35.18958,0 c -0.097,-0.097 -0.17639,-1.34717 -0.17639,-2.77813 v -2.60174 h 2.87802 c 2.16995,0 2.95511,-0.0929 3.19135,-0.37754 0.20171,-0.24304 0.29376,-1.25631 0.25841,-2.84427 l -0.0549,-2.46673 3.01513,-0.13229 3.01514,-0.13229 0.076,-2.76862 c 0.0496,-1.80624 0.18756,-2.83949 0.39688,-2.97251 0.17646,-0.11214 1.47768,-0.20572 2.89158,-0.20794 l 2.57074,-0.004 0.0751,-2.84427 0.0751,-2.84427 2.84427,-0.0751 2.84427,-0.0751 v 11.65062 11.65061 h -11.86215 c -6.52418,0 -11.94153,-0.0794 -12.03854,-0.17638 z"
         id="path6" /><path
         style="fill:#161a1b"
         d="m 3.6413023,175.24742 c -4.60421223,-1.20347 -7.6676456,-4.8092 -8.603393,-10.12641 -0.2881445,-1.63732 -0.3918124,-4.34207 -0.3920785,-10.2295 l -3.617e-4,-8.00365 h 3.8174597 3.8174597 l 0.093025,8.7974 c 0.087447,8.26982 0.1263504,8.86964 0.6487308,10.00209 0.7783341,1.68732 1.9505459,2.76904 3.3947646,3.1327 2.3853343,0.60063 4.4581671,-0.54987 5.6529341,-3.1376 0.673613,-1.45896 0.676492,-1.49643 0.778429,-10.12948 l 0.102316,-8.66511 h 3.651425 c 2.694375,0 3.676181,0.0867 3.745878,0.33073 0.05195,0.1819 0.02268,4.49792 -0.06504,9.59115 -0.169591,9.84698 -0.134911,9.57107 -1.610043,12.80919 -0.718015,1.57614 -3.16765,3.94454 -4.986441,4.82107 -2.797922,1.34842 -6.7576481,1.6667 -10.0450678,0.80742 z m 115.7552077,0.10822 c -6.3848,-1.57724 -10.98585,-7.56696 -10.97707,-14.29012 0.006,-4.31446 1.17129,-7.1973 4.07763,-10.08466 3.68377,-3.6597 8.01195,-4.97485 13.36006,-4.05953 2.73058,0.46733 4.83197,1.55283 6.78301,3.50387 0.93793,0.93794 1.70533,1.88923 1.70533,2.114 0,0.22476 -0.56555,0.79687 -1.25677,1.27136 -0.69123,0.47449 -1.85209,1.31313 -2.57969,1.86366 -0.7276,0.55052 -1.44198,1.00112 -1.5875,1.00133 -0.14552,2.1e-4 -0.4909,-0.33746 -0.76751,-0.75037 -0.27661,-0.41291 -1.05052,-1.09718 -1.71979,-1.52059 -1.11294,-0.7041 -1.4219,-0.76985 -3.61744,-0.76985 -2.18618,0 -2.50054,0.0661 -3.51987,0.74072 -2.20778,1.46104 -3.42549,4.4931 -3.11969,7.76791 0.33211,3.5565 2.33521,6.00333 5.48906,6.70502 2.21518,0.49284 4.18459,-0.13784 5.87111,-1.88015 l 1.26171,-1.30344 0.85496,0.43832 c 0.47023,0.24108 1.35266,0.77877 1.96096,1.19487 0.60831,0.4161 1.18017,0.75654 1.27081,0.75654 0.0906,0 0.5732,0.27751 1.07235,0.61669 l 0.90754,0.61669 -0.74925,1.18145 c -2.45758,3.87521 -9.43582,6.19163 -14.71995,4.88628 z m -147.119278,-0.2235 c -0.06965,-0.18191 -0.09567,-6.58152 -0.05784,-14.22136 l 0.06879,-13.89063 9.731607,-0.0694 9.731607,-0.0694 -0.074316,3.24441 -0.074316,3.24442 -5.820834,0.13229 -5.820833,0.13229 v 2.38125 2.38125 l 4.6186,0.0726 c 3.289016,0.0517 4.6779,0.16597 4.824594,0.39687 0.113297,0.17834 0.207818,1.54464 0.210046,3.03623 l 0.0041,2.71198 h -4.476277 c -2.461953,0 -4.664609,0.0723 -4.894792,0.1606 -0.362223,0.13899 -0.418514,0.86854 -0.418514,5.42396 v 5.26335 h -3.712471 c -2.726052,0 -3.746116,-0.0879 -3.8391,-0.33072 z m 53.059903,-13.94951 v -14.29477 h 2.96814 c 3.273472,0 2.992777,-0.12651 4.704777,2.12052 0.363802,0.47749 1.852083,2.37544 3.307292,4.21767 1.455208,1.84222 3.453823,4.38881 4.441366,5.65909 0.987543,1.27028 1.910277,2.23868 2.050521,2.152 0.153192,-0.0947 0.254988,-2.95045 0.254988,-7.15343 v -6.99585 h 3.836458 3.836458 v 14.2875 14.2875 h -3.10975 -3.10975 l -5.518948,-6.87916 c -3.035421,-3.78354 -5.622617,-6.87917 -5.749325,-6.87917 -0.126707,0 -0.262152,3.06586 -0.300989,6.81302 l -0.07061,6.81302 -3.770312,0.0734 -3.770313,0.0734 z m 30.691667,0.0148 v -14.3096 l 6.680729,0.004 c 7.443177,0.004 8.974226,0.21847 11.61062,1.62365 4.905755,2.61474 7.513769,8.20821 6.797222,14.57817 -0.659645,5.86411 -3.640061,9.72005 -8.979,11.61667 -1.565661,0.55619 -2.219364,0.6075 -8.899675,0.69854 l -7.209896,0.0983 z m 14.117753,6.76072 c 2.343015,-1.3731 3.496434,-4.01409 3.292401,-7.53863 -0.182785,-3.1575 -1.448648,-5.26236 -3.841123,-6.38695 -0.968983,-0.45548 -1.58497,-0.53656 -3.59875,-0.4737 l -2.429656,0.0758 -0.07433,7.01146 c -0.04088,3.8563 -0.0054,7.29297 0.07878,7.63703 0.150191,0.61363 0.202297,0.62361 2.728326,0.52215 2.239116,-0.0899 2.740849,-0.20051 3.844352,-0.8472 z m 11.499906,7.36957 c -0.08196,-0.082 0.006,-0.59111 0.195399,-1.13144 1.651913,-4.71177 4.221926,-12.1064 4.617409,-13.28553 0.268444,-0.80036 1.341181,-3.89599 2.383861,-6.87917 1.042679,-2.98317 2.001487,-5.77277 2.130684,-6.1991 0.129196,-0.42633 0.34388,-0.84305 0.477075,-0.92604 0.133194,-0.083 1.757509,-0.0914 3.609587,-0.0186 l 3.367416,0.13229 1.110589,3.17501 c 0.610829,1.74625 1.840679,5.31812 2.732999,7.9375 0.89233,2.61937 2.47254,7.20328 3.51159,10.18645 1.70188,4.88623 2.36865,6.87806 2.36865,7.07586 0,0.0373 -1.71561,0.0679 -3.81246,0.0679 h -3.81245 l -0.883901,-2.71197 -0.883899,-2.71198 h -3.959514 -3.959515 l -0.818299,2.64583 -0.818299,2.64583 -3.703949,0.0731 c -2.037171,0.0402 -3.77101,0.006 -3.852973,-0.0759 z m 15.566957,-10.8589 c 0.182961,-0.47679 -1.997308,-8.32057 -2.312798,-8.32057 -0.354826,0 -0.502711,0.39562 -1.679146,4.49205 -0.756689,2.63484 -1.037699,3.99548 -0.841854,4.07622 0.161685,0.0667 1.279976,0.1306 2.48509,0.14209 1.749574,0.0167 2.222873,-0.0619 2.348708,-0.38979 z m 40.836212,-3.29349 v -14.2875 h 9.93002 9.93002 l -0.0743,3.24115 -0.0743,3.24115 -5.94072,0.0713 c -4.34756,0.0522 -5.99619,0.15865 -6.14752,0.39687 -0.26813,0.4221 -0.26852,3.13876 -5.1e-4,3.56063 0.14834,0.2335 1.61487,0.34497 5.22147,0.39688 l 5.0152,0.0722 v 3.04271 3.04271 l -5.15938,0.13229 -5.15937,0.13229 -0.0765,2.0095 c -0.0554,1.45341 0.0236,2.09264 0.28545,2.30992 0.24031,0.19945 2.35597,0.3244 6.29425,0.37175 l 5.93226,0.0713 0.0743,3.24115 0.0743,3.24114 h -10.06231 -10.06231 z m 24.33044,14.08907 c -0.008,-0.14025 3.5e-4,-21.54474 0.0109,-28.17813 1.7e-4,-0.10914 1.28924,-0.19844 2.86461,-0.19844 2.63047,0 2.90935,0.0486 3.41617,0.59532 0.48635,0.52462 8.87754,11.15692 10.25264,12.9909 0.2892,0.3857 0.61468,0.70128 0.72328,0.70128 0.10861,0 0.22918,-3.18492 0.26794,-7.0776 l 0.0705,-7.07761 3.77032,-0.0734 c 2.07367,-0.0404 3.77094,0.0192 3.7717,0.1323 7.7e-4,0.11313 0.005,6.51601 0.01,14.22862 l 0.008,14.02291 -3.04059,0.0744 -3.04059,0.0744 -5.34768,-6.68902 c -5.17664,-6.47507 -5.69341,-7.07316 -6.11909,-7.08185 -0.10914,-0.002 -0.19844,3.09158 -0.19844,6.87512 v 6.87916 h -3.70416 c -2.03729,0 -3.70922,-0.0893 -3.7154,-0.19843 z"
         id="path5" /></g></g></svg>
